<?xml version="1.0" encoding="utf-8"?>
<!-- Generator: Adobe Illustrator 21.0.0, SVG Export Plug-In . SVG Version: 6.00 Build 0)  -->
<svg version="1.1" id="Layer_1" xmlns="http://www.w3.org/2000/svg" xmlns:xlink="http://www.w3.org/1999/xlink" x="0px" y="0px"
	 viewBox="0 0 841.9 595.3" style="enable-background:new 0 0 841.9 595.3;" xml:space="preserve">
<style type="text/css">
	.st0{fill:#FFFFFF;stroke:#000000;stroke-miterlimit:10;}
	.st1{opacity:0.5;fill:#FFFFFF;enable-background:new    ;}
	.st2{opacity:0.9;fill:#FFFFFF;enable-background:new    ;}
	.st3{opacity:0.7;fill:#FFFFFF;enable-background:new    ;}
	.st4{opacity:0.3;fill:#FFFFFF;enable-background:new    ;}
	.st5{fill:#FFFFFF;}
</style>
<g id="Layer_3">
	<rect x="-13" y="-8.5" class="st0" width="863.4" height="612.3"/>
</g>
<g id="Laag_2">
	<polygon class="st1" points="486.9,223.6 504.4,211.1 515.1,231.9 504,240.5 	"/>
	<polygon class="st2" points="515.9,210.5 540.8,201.2 546.1,231.6 531.6,236.8 	"/>
	<polygon class="st3" points="563.8,222.6 557,199.2 568,198 579,199.1 573.8,222.6 	"/>
	<polygon class="st2" points="586.9,215.6 591.5,185.1 615,193.9 602.1,221.8 	"/>
	<polygon class="st3" points="610.9,227.4 622.5,207.8 637,219.9 620,236 	"/>
	<polygon class="st2" points="613.9,259.5 630.2,242 642,262.1 619.2,270 	"/>
	<polygon class="st1" points="638,278.2 659.6,271.4 662.8,289.8 639.1,290.9 	"/>
	<polygon class="st3" points="637,298.1 668.5,298 663.6,326.1 633.8,316.5 	"/>
	<polygon class="st2" points="647.5,338.1 668.9,346.6 658.5,364.9 641,348.2 	"/>
	<polygon class="st2" points="616.4,350.4 633.6,365.4 618.6,378.6 607.6,357.8 	"/>
	<polygon class="st4" points="579.6,377.4 594.5,373.2 611.9,398.9 584.2,408.9 	"/>
	<polygon class="st2" points="566.8,392.9 572,415.9 552,415.8 555.9,393.1 	"/>
	<polygon class="st3" points="535.9,371.2 534,395.2 512.5,389.2 524,367.9 	"/>
	<polygon class="st3" points="486.4,366.1 501.8,377.4 485,403.4 464.9,388.9 	"/>
	<polygon class="st4" points="483.2,324.9 489.4,336.4 471.5,351.5 460.4,332.9 	"/>
	<polygon class="st1" points="442.8,341.2 458,363.5 424.4,389 403.8,353.8 	"/>
	<polygon class="st2" points="385.5,362.9 410.8,397.5 390,414.2 365.9,429.9 349.9,407.4 336.6,379.8 360.1,368.2 	"/>
	<polygon class="st3" points="407,436.1 440,464.9 424.2,495.8 413.4,512.9 387.6,494.6 365.8,472.5 386.2,451.4 	"/>
	<polygon class="st2" points="452.9,394.1 475.9,413.9 454.8,450.9 423.9,423.9 	"/>
	<polygon class="st2" points="508.9,402.9 535.9,412.1 527.6,454 485,438.2 	"/>
	<polygon class="st1" points="517.8,471.5 511.1,497 504.8,525.4 451,505.8 461,481.9 476.6,460 	"/>
	<polygon class="st2" points="541.1,484.4 561.5,482.9 581.5,483.8 587.9,509.4 590.6,537.5 562,539 532.1,537.5 538.9,511 	"/>
	<polygon class="st4" points="604,471.5 646.4,456.4 662.2,479.6 670.8,505.1 618.4,523.8 612.8,498.5 	"/>
	<polygon class="st3" points="546,429.2 561.4,432.1 576.4,429.1 583.6,470.9 561.6,474 543,471.9 	"/>
	<polygon class="st1" points="591.2,421 615.6,412.4 638.6,447.2 598.2,462 	"/>
	<polygon class="st3" points="624.9,388.9 645.6,369.5 675.8,398.9 643.6,426.5 	"/>
	<polygon class="st2" points="653,438.4 689.4,409.1 729,447.4 710.5,466.2 683.6,486 670.9,462.6 	"/>
	<polygon class="st2" points="669.1,376.5 684.8,352.8 724.8,365.5 703.4,402 	"/>
	<polygon class="st3" points="735.2,372.8 765.9,384.9 788.8,390.6 776.9,421.5 755.8,446 713.6,411.5 	"/>
	<polygon class="st4" points="680.6,330.2 685.6,301.2 727.9,302.4 720.6,343.5 	"/>
	<polygon class="st2" points="750.1,307 776.1,309.1 804.8,307.2 794.4,367.9 766.8,360.4 741.8,349.5 	"/>
	<polygon class="st4" points="769.2,231.4 796.5,227.2 806.4,286.6 777.1,286.5 753,283.6 746.1,245.4 	"/>
	<polygon class="st2" points="681.1,257.1 720.4,242.1 728.1,285.8 685.9,287 	"/>
	<polygon class="st3" points="657.6,254 643,230.8 675.4,203.6 696.5,239.9 	"/>
	<polygon class="st2" points="694.8,193.2 739.5,159.1 760,184.9 770.6,212.6 746,223.9 719.2,227.9 	"/>
	<polygon class="st1" points="674.4,119.2 684.6,93.5 711.8,113.4 731.5,133.2 710.5,149.1 691.9,171.9 655.9,142.2 	"/>
	<polygon class="st2" points="627,189.5 648.4,152.8 683.8,181.6 649.4,206.9 	"/>
	<polygon class="st2" points="592,176.5 600.6,134.4 640.2,149.1 621.4,186.9 	"/>
	<polygon class="st3" points="608.9,81.8 615,56.1 643.2,59.4 669,75.4 641.9,121.2 601,108.6 	"/>
	<polygon class="st2" points="589.9,95.2 586.9,123.9 544.2,121.8 532.5,69.2 562.8,64 595.9,68.2 	"/>
	<polygon class="st1" points="545.1,133.1 563.5,132 586.8,133.4 576.1,173.4 564.8,172.1 552.2,173.8 	"/>
	<polygon class="st3" points="541.6,187.4 517.8,196.5 492.5,161.4 532.5,147.5 	"/>
	<polygon class="st2" points="480.2,161 503.6,195.9 480,215.9 446.2,188.6 	"/>
	<polygon class="st2" points="442,245 402.5,228.6 423.2,194.1 455.9,219.1 	"/>
	<polygon class="st1" points="387.5,165 368.1,143.8 351,167 338.8,196.1 364,205.1 387.8,216.4 406.9,181.5 	"/>
	<polygon class="st3" points="392.9,145.5 413.4,123.1 438,108.1 453.8,129.9 463,153.1 435,177.5 	"/>
	<polygon class="st2" points="486,128.5 523,115.5 523.5,90 514.5,62.5 485,67 455.5,83.5 469,110 	"/>
	<polygon class="st4" points="461.2,246.6 470.9,231 490,244.4 482.9,255.8 	"/>
</g>
<g id="Laag_3">
	<g>
		<path class="st5" d="M23.5,271.3c2.4-0.4,7.3-0.9,12-0.9c5.7,0,9.2,0.5,12.2,2.3c2.9,1.5,4.9,4.3,4.9,8.1c0,3.6-2.1,7-6.8,8.7v0.1
			c4.7,1.2,8.2,4.8,8.2,10.1c0,3.8-1.7,6.7-4.3,8.8c-3,2.4-8,3.7-16.2,3.7c-4.6,0-8-0.3-10.1-0.6L23.5,271.3L23.5,271.3z M32.7,287
			h3.1c4.9,0,7.5-2,7.5-5.1s-2.4-4.8-6.6-4.8c-2.1,0-3.2,0.1-4,0.2V287z M32.7,305.3c0.9,0.1,2,0.1,3.6,0.1c4.2,0,7.9-1.6,7.9-6
			c0-4.1-3.7-5.7-8.4-5.7h-3.2L32.7,305.3L32.7,305.3z"/>
		<path class="st5" d="M76.2,270.7v41.1h-9.3v-41.1H76.2z"/>
		<path class="st5" d="M128.4,290.9c0,13.5-8.1,21.7-20.2,21.7s-19.3-9.2-19.3-21c0-12.3,7.9-21.5,20-21.5
			C121.5,270,128.4,279.5,128.4,290.9z M98.7,291.4c0,8.1,3.8,13.8,10,13.8c6.3,0,9.9-6,9.9-14c0-7.4-3.5-13.8-9.9-13.8
			C102.3,277.4,98.7,283.4,98.7,291.4z"/>
		<path class="st5" d="M141,271.4c3.4-0.5,7.9-0.9,12.5-0.9c7.9,0,13,1.5,16.9,4.4c4.3,3.2,7,8.2,7,15.5c0,7.9-2.9,13.3-6.8,16.7
			c-4.3,3.6-11,5.3-19,5.3c-4.8,0-8.3-0.3-10.6-0.6L141,271.4L141,271.4z M150.3,304.8c0.8,0.2,2.1,0.2,3.2,0.2
			c8.5,0.1,14-4.6,14-14.4c0-8.5-5-13.1-13.1-13.1c-2,0-3.4,0.2-4.2,0.4v26.9H150.3z"/>
		<path class="st5" d="M199.3,270.7v41.1H190v-41.1H199.3z"/>
		<path class="st5" d="M223.6,311.9l-13.2-41.1h10.2l5,17.4c1.4,4.9,2.7,9.6,3.7,14.7h0.2c1-4.9,2.3-9.8,3.7-14.5l5.2-17.6h9.9
			l-13.8,41.1H223.6z"/>
		<path class="st5" d="M283.7,294.5h-15.1v9.8h16.9v7.6h-26.2v-41.1h25.3v7.6h-16v8.5h15.1L283.7,294.5L283.7,294.5z"/>
		<path class="st5" d="M298.3,271.3c3-0.5,7.4-0.9,12.4-0.9c6.1,0,10.4,0.9,13.3,3.2c2.5,2,3.8,4.9,3.8,8.7c0,5.2-3.7,8.8-7.3,10.1
			v0.2c2.9,1.2,4.5,3.8,5.5,7.6c1.3,4.7,2.5,10.1,3.3,11.7h-9.5c-0.6-1.2-1.6-4.5-2.8-9.6c-1.2-5.2-2.9-6.5-6.8-6.6h-2.7v16.2h-9.2
			L298.3,271.3L298.3,271.3z M307.5,289h3.7c4.6,0,7.4-2.3,7.4-5.9c0-3.7-2.6-5.7-6.8-5.7c-2.3,0-3.5,0.1-4.2,0.3V289H307.5z"/>
		<path class="st5" d="M341.3,302.3c2.4,1.3,6.3,2.6,10.3,2.6c4.3,0,6.5-1.8,6.5-4.5c0-2.6-2-4-6.9-5.7c-6.8-2.4-11.3-6.2-11.3-12.2
			c0-7,5.9-12.3,15.6-12.3c4.7,0,8.1,0.9,10.5,2.1l-2.1,7.4c-1.6-0.8-4.6-2-8.5-2c-4,0-6,1.9-6,4c0,2.6,2.3,3.8,7.6,5.8
			c7.3,2.7,10.6,6.5,10.6,12.3c0,6.9-5.2,12.8-16.5,12.8c-4.7,0-9.3-1.3-11.7-2.6L341.3,302.3z"/>
		<path class="st5" d="M389.8,270.7v41.1h-9.3v-41.1H389.8z"/>
		<path class="st5" d="M412.4,278.6h-11.1v-7.8h31.6v7.8h-11.2v33.3h-9.3V278.6z"/>
		<path class="st5" d="M453.9,311.9V295l-13-24.3h10.7l4.1,9.9c1.3,3,2.2,5.2,3.2,7.9h0.1c0.9-2.6,1.9-4.9,3.1-7.9l4.1-9.9h10.4
			l-13.5,24v17.1L453.9,311.9L453.9,311.9z"/>
		<path class="st5" d="M483.2,306.9c0-3.4,2.3-5.7,5.5-5.7s5.4,2.3,5.4,5.7c0,3.2-2.2,5.6-5.6,5.6
			C485.5,312.5,483.2,310.2,483.2,306.9z"/>
		<path class="st5" d="M512.7,301.3l-2.9,10.6h-9.6l12.5-41.1h12.2l12.8,41.1h-10.1l-3.2-10.6H512.7z M523.1,294.4l-2.6-8.7
			c-0.7-2.4-1.5-5.5-2.1-7.9h-0.1c-0.6,2.4-1.2,5.6-1.9,7.9l-2.4,8.7H523.1z"/>
		<path class="st5" d="M581.4,318.9c-5.9-1.7-10.7-3.5-16.3-5.8c-0.9-0.4-1.9-0.5-2.8-0.6c-9.3-0.6-18-7.4-18-20.9
			c0-12.4,7.8-21.6,20.1-21.6c12.5,0,19.4,9.5,19.4,20.8c0,9.3-4.3,15.9-9.7,18.4v0.2c3.1,0.9,6.6,1.7,9.9,2.3L581.4,318.9z
			 M574,291.2c0-7.6-3.5-13.8-9.9-13.8c-6.3,0-10,6.2-10,14s3.7,13.8,10,13.8C570.4,305.1,574,299.2,574,291.2z"/>
	</g>
</g>
</svg>
