<svg id="mark" xmlns="http://www.w3.org/2000/svg" viewBox="0 0 539.71 523.91"><defs><style>.cls-1{fill:#fff;}</style></defs><title>GBIF-2015-mark-white</title><path class="cls-1" d="M335.86,368.86c0-102.24,49.9-190.71,198.36-190.71,0,102.45-67.4,190.71-198.36,190.71" transform="translate(-105.14 -113.38)"/><path class="cls-1" d="M573.72,637.29c27.81,0,49.18-4,71.13-12,0-80.91-48.27-138.72-133.52-180.39-65.24-32.72-145.55-49.66-218.78-49.66,32.14-96.45,8.71-216.14-22.43-281.83-34.5,68.83-56,186.82-22.91,282.82-65.06,4.74-116.65,33.08-138.47,70.45-1.65,2.85-5,8.92-3,10,1.56.83,4.07-1.71,5.63-3.13,23.51-21.76,54.63-32.36,84.52-32.36,69.07,0,117.82,57.32,152.27,91.75,74,74,146.41,104.58,225.55,104.43" transform="translate(-105.14 -113.38)"/></svg>