<svg id="Layer_1" data-name="Layer 1" xmlns="http://www.w3.org/2000/svg" viewBox="0 0 215.71 122.79"><defs><style>.cls-1,.cls-2{fill:#fff;}.cls-2{fill-rule:evenodd;}</style></defs><title>obis_logo_white</title><path class="cls-1" d="M590.89,419.24a6.52,6.52,0,0,1-13,0,6.52,6.52,0,0,1,13,0Zm-1.56,0a5,5,0,1,0-9.94,0,5,5,0,1,0,9.94,0" transform="translate(-575 -323)"/><path class="cls-1" d="M602.7,415.39a5,5,0,0,0-8.21,3.86A4.9,4.9,0,0,0,602.7,423v1.83a6.72,6.72,0,0,1-3.27.88,6.44,6.44,0,0,1-6.49-6.42,6.54,6.54,0,0,1,6.62-6.56,6,6,0,0,1,3.14.84v1.8" transform="translate(-575 -323)"/><polyline class="cls-1" points="30.79 90.01 37.47 90.01 37.47 91.43 32.34 91.43 32.34 94.92 37.32 94.92 37.32 96.34 32.34 96.34 32.34 101.04 37.47 101.04 37.47 102.47 30.79 102.47 30.79 90.01"/><path class="cls-1" d="M617.39,422.34,616,425.46H614.3l5.94-13,5.95,13h-1.66l-1.42-3.12Zm2.86-6.46-2.21,5h4.43l-2.21-5" transform="translate(-575 -323)"/><polyline class="cls-1" points="53.32 89.42 62.67 99.21 62.67 90.01 64.22 90.01 64.22 102.98 54.88 93.18 54.88 102.47 53.32 102.47 53.32 89.42"/><path class="cls-1" d="M648.55,413h1.52c2.34,0,4.56.61,4.56,3.42a2.68,2.68,0,0,1-1.34,2.36v0a3.2,3.2,0,0,1,2.49,3.15c0,2.5-2.13,3.49-4.32,3.49h-2.91Zm1.55,5.52h.39c1.47,0,2.68-.3,2.68-2.08s-1.19-2-2.64-2h-.43Zm0,5.55h1.19c1.43,0,2.94-.43,2.94-2.2s-1.78-2.11-3.17-2.11h-1v4.31" transform="translate(-575 -323)"/><rect class="cls-1" x="83.71" y="90.01" width="1.55" height="12.45"/><path class="cls-1" d="M676,419.24a6.52,6.52,0,0,1-13,0,6.52,6.52,0,0,1,13,0Zm-1.55,0a5,5,0,1,0-9.94,0,5,5,0,1,0,9.94,0" transform="translate(-575 -323)"/><path class="cls-1" d="M690.08,419.19v.5a5.78,5.78,0,0,1-5.89,6,6.49,6.49,0,0,1,.17-13,6.53,6.53,0,0,1,5.07,2.41l-1.09,1a4.91,4.91,0,0,0-8.88,3,5.08,5.08,0,0,0,4.84,5.08,4.18,4.18,0,0,0,4.08-3.7h-3.22v-1.42h4.93" transform="translate(-575 -323)"/><polyline class="cls-1" points="117.86 90.01 124.54 90.01 124.54 91.43 119.41 91.43 119.41 94.92 124.39 94.92 124.39 96.34 119.41 96.34 119.41 101.04 124.54 101.04 124.54 102.47 117.86 102.47 117.86 90.01"/><path class="cls-1" d="M714.87,419.24a6.52,6.52,0,0,1-13,0,6.52,6.52,0,0,1,13,0Zm-1.55,0a5,5,0,1,0-9.94,0,5,5,0,1,0,9.94,0" transform="translate(-575 -323)"/><path class="cls-1" d="M729,419.19v.5a5.78,5.78,0,0,1-5.89,6,6.49,6.49,0,0,1,.16-13,6.51,6.51,0,0,1,5.07,2.41l-1.09,1a4.91,4.91,0,0,0-8.88,3,5.08,5.08,0,0,0,4.84,5.08,4.18,4.18,0,0,0,4.08-3.7H724v-1.42H729" transform="translate(-575 -323)"/><path class="cls-1" d="M739.47,425.46h-1.88l-3.67-5.27h-.65v5.27h-1.55V413h1.88a6.57,6.57,0,0,1,3.29.58,3.44,3.44,0,0,1,1.64,3,3.39,3.39,0,0,1-3,3.49Zm-6.19-6.56h.5c1.59,0,3.3-.3,3.3-2.28s-1.85-2.23-3.38-2.23h-.41v4.51" transform="translate(-575 -323)"/><path class="cls-1" d="M743.7,422.34l-1.42,3.12h-1.67l5.95-13,5.95,13h-1.67l-1.42-3.12Zm2.86-6.46-2.21,5h4.43l-2.22-5" transform="translate(-575 -323)"/><path class="cls-1" d="M756.33,425.46h-1.55V413h1.78c3.83,0,5,1.32,5,3.6,0,2.63-2,3.63-4.36,3.63h-.89Zm0-6.61h.5c1.59,0,3.3-.3,3.3-2.28s-1.85-2.18-3.39-2.18h-.41v4.46" transform="translate(-575 -323)"/><polyline class="cls-1" points="196.54 95.03 196.54 90.01 198.09 90.01 198.09 102.47 196.54 102.47 196.54 96.48 190.61 96.48 190.61 102.47 189.06 102.47 189.06 90.01 190.61 90.01 190.61 95.03 196.54 95.03"/><rect class="cls-1" x="201.53" y="90.01" width="1.55" height="12.45"/><path class="cls-1" d="M790.71,415.39a5,5,0,0,0-8.21,3.86,4.9,4.9,0,0,0,8.21,3.77v1.83a6.72,6.72,0,0,1-3.27.88A6.44,6.44,0,0,1,781,419.3a6.54,6.54,0,0,1,6.62-6.56,6,6,0,0,1,3.14.84v1.8" transform="translate(-575 -323)"/><rect class="cls-1" x="3.67" y="109.83" width="1.55" height="12.45"/><polyline class="cls-1" points="8.64 109.23 17.98 119.02 17.98 109.83 19.54 109.83 19.54 122.79 10.19 113 10.19 122.28 8.64 122.28 8.64 109.23"/><polyline class="cls-1" points="24.52 111.25 24.52 114.75 28.85 114.75 28.85 116.17 24.52 116.17 24.52 122.28 22.97 122.28 22.97 109.83 29 109.83 29 111.25 24.52 111.25"/><path class="cls-1" d="M619.22,439.05a6.52,6.52,0,0,1-13,0,6.52,6.52,0,0,1,13,0Zm-1.55,0a5,5,0,1,0-9.94,0,5,5,0,1,0,9.94,0" transform="translate(-575 -323)"/><path class="cls-1" d="M629.71,445.28h-1.88L624.16,440h-.64v5.27H622V432.83h1.88a6.59,6.59,0,0,1,3.29.58,3.44,3.44,0,0,1,1.63,3,3.39,3.39,0,0,1-3,3.48Zm-6.19-6.55H624c1.59,0,3.3-.3,3.3-2.28s-1.85-2.23-3.39-2.23h-.41v4.51" transform="translate(-575 -323)"/><polyline class="cls-1" points="59.28 114.06 59.25 114.06 57.8 122.28 56.2 122.28 58.74 109.3 63.02 119.11 67.29 109.3 69.84 122.28 68.23 122.28 66.78 114.06 66.75 114.06 63.02 122.54 59.28 114.06"/><path class="cls-1" d="M649.23,442.16l-1.42,3.12h-1.67l5.95-13,5.95,13h-1.67l-1.42-3.12Zm2.86-6.45-2.21,5h4.43l-2.21-5" transform="translate(-575 -323)"/><polyline class="cls-1" points="87.34 122.28 85.79 122.28 85.79 111.25 82.84 111.25 82.84 109.83 90.3 109.83 90.3 111.25 87.34 111.25 87.34 122.28"/><rect class="cls-1" x="92.71" y="109.83" width="1.55" height="12.45"/><path class="cls-1" d="M685,439.05a6.52,6.52,0,0,1-13,0,6.52,6.52,0,0,1,13,0Zm-1.55,0a5,5,0,1,0-9.94,0,5,5,0,1,0,9.94,0" transform="translate(-575 -323)"/><polyline class="cls-1" points="112.59 109.23 121.94 119.02 121.94 109.83 123.49 109.83 123.49 122.79 114.14 113 114.14 122.28 112.59 122.28 112.59 109.23"/><path class="cls-1" d="M713.48,435.19a2.13,2.13,0,0,0-2-1.17,2,2,0,0,0-2.08,1.77c0,1,1,1.48,1.73,1.78l.89.35c1.77.69,3.09,1.67,3.09,3.75a3.84,3.84,0,0,1-4,3.88,3.88,3.88,0,0,1-3.85-3.48l1.57-.33a2.35,2.35,0,1,0,4.71-.06c0-1.34-1.07-1.92-2.15-2.36l-.86-.36c-1.42-.61-2.71-1.42-2.71-3.15a3.4,3.4,0,0,1,3.66-3.22,3.56,3.56,0,0,1,3.21,1.88l-1.24.74" transform="translate(-575 -323)"/><polyline class="cls-1" points="141.77 109.83 143.55 109.83 146.6 115.14 149.66 109.83 151.44 109.83 147.38 116.86 147.38 122.28 145.83 122.28 145.83 116.86 141.77 109.83"/><path class="cls-1" d="M734.29,435.19a2.14,2.14,0,0,0-2-1.17,2,2,0,0,0-2.08,1.77c0,1,1,1.48,1.73,1.78l.89.35c1.77.69,3.09,1.67,3.09,3.75a3.84,3.84,0,0,1-4,3.88,3.88,3.88,0,0,1-3.85-3.48l1.57-.33a2.35,2.35,0,1,0,4.71-.06c0-1.34-1.07-1.92-2.15-2.36l-.86-.36c-1.42-.61-2.71-1.42-2.71-3.15a3.4,3.4,0,0,1,3.67-3.22,3.55,3.55,0,0,1,3.2,1.88l-1.24.74" transform="translate(-575 -323)"/><polyline class="cls-1" points="167.22 122.28 165.66 122.28 165.66 111.25 162.7 111.25 162.7 109.83 170.17 109.83 170.17 111.25 167.22 111.25 167.22 122.28"/><polyline class="cls-1" points="172.63 109.83 179.32 109.83 179.32 111.25 174.18 111.25 174.18 114.73 179.17 114.73 179.17 116.15 174.18 116.15 174.18 120.86 179.32 120.86 179.32 122.28 172.63 122.28 172.63 109.83"/><polyline class="cls-1" points="184.59 114.06 184.56 114.06 183.1 122.28 181.5 122.28 184.04 109.3 188.32 119.11 192.59 109.3 195.14 122.28 193.54 122.28 192.08 114.06 192.05 114.06 188.32 122.54 184.59 114.06"/><path class="cls-1" d="M667.7,324h-1.23v79.27h20.89c7.14,0,13.06-1,18.72-5.79a21.4,21.4,0,0,0,7.56-16.82,20.46,20.46,0,0,0-14.22-19.79c4.83-3.57,7.19-8.59,7.19-15.26,0-7.21-2.3-12.87-6.84-16.82-5-4.41-11-4.78-16.69-4.78Zm13.35,7c4.38,0,8.91,0,12.49,2.26s5.75,6.52,5.75,11.6c0,5.39-1.51,8.67-5.2,11.34s-7.26,2.65-11.77,2.63h-8.5V331.05Zm2.34,34.84c5.58,0,11.38.18,15.65,2.32s7.27,7.14,7.27,12.66a15,15,0,0,1-7,12.64c-4.11,2.77-9.18,2.76-14.08,2.75H673.81V365.9h9.57" transform="translate(-575 -323)"/><polyline class="cls-1" points="155.15 1.02 149.03 1.02 149.03 80.28 156.38 80.28 156.38 1.02 155.15 1.02"/><path class="cls-1" d="M746,343.68c0,6.31,2.87,11.29,8.53,14.79l13.93,7.38,1.42.7c6.29,3.05,13.41,6.51,13.41,13.81,0,9.17-8.12,16.91-17.72,16.91-10.06,0-15-7.12-17.41-13.09l-.48-1.19-6.48,2.93.39,1.07c3.85,10.68,13,17.31,23.76,17.31,13.7,0,25.27-10.78,25.27-23.54,0-7.11-3-12.3-9.33-16.32l0,0-14.72-7.66-.63-.3c-5.89-2.79-12.57-6-12.57-13A13.2,13.2,0,0,1,766.62,330c6.19,0,11,2.78,14.55,8.5l.74,1.18,5.32-4.39-.49-.89A22.85,22.85,0,0,0,766.93,323c-12.1,0-20.89,8.7-20.89,20.68" transform="translate(-575 -323)"/><polyline class="cls-2" points="58.66 26.86 58.85 27 59.09 27.11 59.35 27.17 59.85 27.2 60.22 27.25 60.68 27.4 60.87 27.49 61.07 27.6 61.16 27.64 61.37 27.77 61.59 27.91 61.57 27.94 61.42 27.9 61.34 27.86 61.12 27.75 60.82 27.63 60.35 27.5 59.76 27.45 59.76 27.46 59.9 27.56 60.25 27.7 60.82 27.91 60.97 27.97 61.2 28.07 61.38 28.15 61.66 28.3 61.81 28.38 61.93 28.46 62.12 28.62 62.2 28.69 62.22 28.78 62.21 28.78 61.92 28.7 61.77 28.64 61.59 28.55 61.32 28.44 61.26 28.4 60.97 28.28 60.92 28.25 60.67 28.15 60.48 28.08 60.16 27.98 59.85 27.95 59.8 27.98 59.82 28.07 59.89 28.15 60.19 28.48 60.77 28.99 60.96 29.14 61.24 29.38 61.35 29.46 61.54 29.6 61.6 29.64 61.81 29.78 61.8 29.79 61.62 29.78 61.31 29.7 61.21 29.66 60.91 29.5 60.72 29.38 60.3 29.03 59.67 28.42 59.52 28.3 59.32 28.21 59.22 28.21 59.24 28.3 59.28 28.38 59.48 28.76 59.72 29.14 59.98 29.5 60.19 29.71 60.42 29.93 60.7 30.13 60.65 30.17 60.59 30.18 60.45 30.15 60.33 30.09 60.2 29.99 59.86 29.68 59.36 29.1 59.21 28.9 59.15 28.82 58.91 28.38 58.75 28.18 58.49 27.87 58.18 27.57 58.19 27.56 58.28 27.5 58.44 27.34 58.6 27.03 58.66 26.86"/><polyline class="cls-2" points="57.98 27.45 57.99 27.43 57.98 27.43 57.89 27.36 57.68 27.21 57.62 27.18 57.29 27 57.2 26.96 56.86 26.82 56.82 26.79 56.55 26.68 56.49 26.65 56.24 26.53 56.1 26.45 55.96 26.36 55.95 26.25 55.98 26.14 56.1 25.81 56.32 25.56 56.44 25.47 56.48 25.44 56.51 25.45 56.65 25.54 56.92 25.75 57.02 25.82 57.4 26.1 57.47 26.15 57.71 26.32 57.87 26.43 58.13 26.61 58.41 26.76 58.39 26.96 58.27 27.21 58.09 27.39 58 27.45 57.98 27.45"/><polyline class="cls-2" points="55.7 26.24 55.49 26.2 55.21 26.11 54.98 26.04 55.02 25.78 55.13 25.48 55.28 25.21 55.48 24.97 55.62 24.84 55.7 24.79 55.88 24.88 56.19 25.18 56.23 25.23 56.26 25.3 56.2 25.36 56.02 25.54 55.89 25.74 55.79 25.97 55.75 26.08 55.7 26.24"/><polyline class="cls-2" points="54.72 25.96 54.52 25.91 54.23 25.86 54 25.83 54 25.82 54.03 25.69 54.07 25.46 54.2 25.09 54.39 24.73 54.63 24.42 54.87 24.18 55.08 24.04 55.2 24 55.31 24.01 55.39 24.13 55.53 24.43 55.59 24.59 55.38 24.75 55.2 24.94 55.03 25.2 54.92 25.41 54.84 25.63 54.72 25.96"/><polyline class="cls-2" points="55.2 23.73 55.17 23.7 55.11 23.71 54.97 23.75 54.74 23.88 54.53 24.05 54.28 24.34 54.22 24.46 54.08 24.69 54.02 24.79 53.93 25.01 53.89 25.09 53.8 25.33 53.72 25.64 53.69 25.79 53.5 25.8 53.14 25.73 52.94 25.68 52.95 25.57 53 25.27 53.13 24.81 53.23 24.55 53.28 24.44 53.35 24.31 53.39 24.23 53.55 23.97 53.59 23.91 53.74 23.73 53.99 23.48 54.25 23.29 54.47 23.17 54.68 23.08 54.77 23.05 54.86 23.05 54.95 23.22 55.12 23.55 55.2 23.73"/><path class="cls-2" d="M622.28,346.23l.18-.31.2-.26.07-.09.2-.2,0,0,.27-.23.29-.19.29-.15.18-.06.2-.06.12,0,0-.06,0-.16,0-.09.13-.22.05-.07.23-.24.15-.13.07-.05-.06-.08,0-.1,0-.1,0-.34,0-.68.13-.71.11-.37.07-.16,0-.05.12-.23,0-.07.08-.13.31-.34.09-.09h0l.05,0h.07l0,.11-.11.2-.19.41-.07.15-.16.52-.06.68,0,.32.07.31.14.37,0,.06,0,0,0-.12.07-.25.09-.27,0-.06.16-.29.05-.08.21-.23.32-.22.18-.07.21-.06.21,0h.5l.57.09.59.17.61.25.63.31.29.16.12.07.09.05.07,0,.13.09.06,0,.27.18,0,0,.23.16.24.18.45.36.27.25.34.38.28.4.12.26,0,.06v.07l-.07,0-.05-.05-.14-.17-.51-.52-.17-.14-.45-.36-.19-.13-.41-.28-.17-.11-.27-.15-.24-.13-.28-.14-.12-.05-.15-.08-.39-.16-.34-.13-.24-.08-.52-.12-.38-.05h-.37l-.47.08-.21.1-.21.15-.13.15-.1.19,0,0-.06.2,0,.35v.2l.14,0,.2.05.5.17.17.07.11,0,.36.18.68.44.51.5.3.45,0,.08,0,.08-.13.05-.07,0-.21.11-.37.25-.27.28-.19.25,0,.09-.1.15-.08.16-.05.11,0,.06-.13.32-.18.57-.07.29,0,.16-.2-.05-.37-.12-.18-.08-.19-.09-.23-.13-.12-.07-.36-.25-.24-.21-.27-.27-.44-.55-.39-.63-.09-.16,0-.05-.09,0-.08.05-.27.25-.07.1-.09.17-.05.12-.1.42v.39l0,.37.1.36.14.34.24.41.29.41.41.44a6.59,6.59,0,0,1,.5.54,3.63,3.63,0,0,0,.73.61l.76.56a6,6,0,0,1,.79.73c-.15.12-.18.13-.33.05s-2-1.47-2.63-2l-.15-.13-.57-.58-.47-.61-.36-.62-.13-.33-.09-.34,0-.36V347l.07-.32.15-.33.2-.31.21-.25.27-.24s.18-.13.16-.15l-.14.05-.3.13-.36.22-.34.29-.09.1-.28.4-.12.24-.08.2-.16.32-.11-.07,0-.12v-.24l.06-.25.06-.17.08-.18,0-.09" transform="translate(-575 -323)"/><polyline class="cls-2" points="15.62 30.47 15.62 30.45 15.58 30.45 15.58 30.43 15.43 30.43 15.43 30.41 15.34 30.41 15.13 30.36 14.85 30.43 14.08 30.44 12.87 30.49 12.37 30.52 12.24 30.52 11.96 30.54 11.84 30.54 11.52 30.55 11.34 30.56 10.97 30.57 10.61 30.58 10.08 30.61 9.84 30.7 9.99 30.8 10.66 30.81 10.88 30.82 11.03 30.82 11.15 30.83 11.66 30.88 11.86 30.89 12.2 30.93 13.04 31.06 13.45 31.15 14.23 31.55 14.52 31.7 14.62 31.74 14.62 31.78 14.63 31.78 14.63 31.8 14.68 31.8 14.68 31.82 14.69 31.82 14.69 31.84 14.73 31.84 14.73 31.86 14.77 31.86 14.77 31.88 14.79 31.88 14.79 31.9 14.84 31.9 14.91 32.27 14.92 32.45 14.97 32.77 14.97 32.93 15.05 33.6 15.1 33.85 15.19 34.01 15.24 34.25 15.26 34.57 15.3 34.92 15.32 35.23 15.34 35.46 15.41 36 15.46 36.29 15.52 36.38 15.8 36.72 15.96 36.96 16.03 37.1 16.18 37.4 16.46 38.04 16.77 38.65 16.99 38.95 17.17 39.13 17.56 39.65 17.98 40.27 18.31 40.68 18.88 41.04 19 41.1 19.43 41.32 19.99 41.66 20.56 41.88 20.8 41.95 21.11 42.05 21.32 42.13 21.32 42.15 21.36 42.15 21.36 42.17 21.43 42.17 21.43 42.18 21.51 42.18 21.51 42.2 21.61 42.2 21.61 42.23 21.7 42.23 21.7 42.24 21.74 42.24 21.74 42.26 21.8 42.26 21.8 42.28 22.01 42.34 22.35 42.43 22.43 42.44 23.1 42.58 23.45 42.64 23.88 42.7 24.5 42.76 24.66 42.77 25.23 42.81 25.42 42.81 25.69 42.81 26.07 42.81 26.59 42.81 26.86 42.8 27.07 42.78 27.64 42.77 27.69 42.98 27.69 43.45 27.54 44.22 27.51 44.9 27.51 45.05 27.53 45.35 27.61 45.79 27.77 46.43 27.79 46.6 27.95 47.25 28.13 48.09 28.14 48.39 28.14 48.97 28.13 49.72 28.11 50.11 28.11 50.27 28.1 50.58 28.11 51.03 28.21 51.36 28.25 51.55 28.25 51.6 28.43 51.83 28.6 51.8 29 51.52 29.25 51.3 29.46 51.03 29.48 50.94 29.55 50.88 29.59 50.73 29.65 50.67 29.75 50.45 29.82 50.32 29.83 50.23 29.95 49.9 29.98 49.77 30.06 49.65 30.08 49.57 30.15 49.49 30.16 49.43 30.2 49.38 30.26 49.23 30.32 49.14 30.36 49.03 30.44 48.94 30.5 48.78 30.55 48.67 30.54 48.48 30.5 48.04 30.5 47.61 30.55 47.23 30.54 47.13 30.57 47.05 30.57 46.95 30.6 46.86 30.6 46.66 30.62 46.29 30.63 46.23 30.62 45.98 30.63 45.78 30.63 45.57 30.61 45.52 30.63 45.41 30.6 45.36 30.59 45.26 30.46 45.05 30.31 44.86 30.05 44.23 29.97 43.84 29.8 42.81 29.8 42.62 29.76 42.25 29.91 42.25 30.26 42.16 31.07 41.93 32 41.65 32.35 41.56 32.41 41.5 32.57 41.48 32.76 41.4 33.18 41.28 33.33 41.25 34.17 41.11 34.52 41.06 34.98 40.95 35.09 40.94 35.48 40.84 36.47 40.48 36.89 40.35 37.31 40.19 37.67 40.06 38.09 39.92 38.86 39.68 39.25 39.57 39.53 39.51 40.89 39.18 41.37 39.08 41.8 39.05 42.01 39.05 42.11 38.98 42.44 38.82 42.6 38.74 42.6 38.72 42.73 38.72 42.73 38.66 42.94 38.66 42.94 38.63 43.11 38.53 43.2 38.51 43.38 38.34 43.59 38 43.86 37.87 44.16 37.69 44.4 37.43 44.47 37.23 44.46 37.05 44.27 36.75 44.19 36.67 44.08 36.63 43.95 36.61 43.71 36.59 43.71 36.37 43.72 36.35 43.57 36.07 43.18 35.75 42.68 35.54 41.66 35.33 41.17 35.16 40.9 35.02 40.53 34.96 39.93 34.84 39.37 34.69 39.13 34.54 38.75 34.34 37.94 33.95 37.85 33.91 37.61 33.77 37.48 33.68 37.36 33.65 36.89 33.54 36.89 33.55 36.84 33.52 36.7 33.55 36.55 33.56 36.32 33.6 36.1 33.65 35.3 33.89 34.88 33.95 34.73 33.95 34.01 34.11 33.48 34.26 33.29 34.28 32.93 34.31 32.41 34.24 32.17 34.24 31.81 34.24 31.35 34.25 31.05 34.27 30.91 34.27 30.51 34.28 30.38 34.27 29.92 34.22 29.79 34.22 29.1 34.22 28.75 34.23 28.52 34.24 28.02 34.28 27.8 34.29 27.61 34.32 26.9 34.39 26.05 34.46 25.82 34.48 25.48 34.48 25.36 34.48 25.02 34.48 24.73 34.46 24.5 34.44 24 34.38 23.8 34.36 23.18 34.26 23 34.24 22.51 34.17 22.4 34.16 22.03 34.1 21.91 34.1 21.55 34.06 21.45 34.06 21.15 34.04 21.02 34.04 20.86 34.02 20.86 34 20.84 34 20.84 33.98 20.8 33.98 20.8 33.96 20.76 33.96 20.76 33.94 20.74 33.94 20.74 33.92 20.71 33.92 20.71 33.9 20.69 33.9 20.69 33.88 20.65 33.88 20.65 33.86 20.63 33.86 20.63 33.84 20.59 33.84 20.59 33.82 20.57 33.82 20.57 33.8 20.55 33.8 20.55 33.79 20.51 33.79 20.51 33.77 20.47 33.77 20.47 33.75 20.42 33.73 20.42 33.71 20.38 33.71 20.38 33.69 20.36 33.69 20.36 33.67 20.32 33.67 20.32 33.65 20.28 33.65 20.28 33.63 20.25 33.63 20.25 33.61 20.21 33.61 20.21 33.59 20.17 33.59 20.17 33.57 20.13 33.57 20.13 33.55 20.09 33.55 20.09 33.54 20.05 33.54 20.05 33.52 20.04 33.52 20.04 33.5 20 33.5 20 33.48 19.97 33.48 19.84 33.38 19.57 33.18 19.12 32.85 18.62 32.58 18.23 32.44 18.23 32.45 18.27 32.55 18.31 32.93 18.31 33.32 18.25 33.32 18.25 33.3 18.19 33.3 18.19 33.28 18.17 33.28 18.17 33.27 18.13 33.27 18.13 33.25 17.97 33.16 17.68 33 17.35 32.83 16.85 32.5 16.6 32.27 16.45 32.1 16.34 31.9 16.36 31.9 16.36 31.88 16.4 31.88 16.4 31.86 16.42 31.86 16.42 31.84 16.5 31.79 16.79 31.63 16.97 31.55 17.59 31.27 18.8 30.83 19.15 30.73 19.3 30.69 19.79 30.46 19.74 30.36 19.49 30.3 18.96 30.25 18.67 30.25 18.48 30.26 17.74 30.32 17.05 30.39 16.88 30.39 16.52 30.44 16.43 30.44 16.18 30.45 15.99 30.46 15.62 30.47"/><polyline class="cls-2" points="39.48 59.4 39.54 59.66 39.6 59.73 39.68 59.88 39.8 59.99 40.09 60.27 40.41 60.5 40.6 60.65 40.68 60.66 40.73 60.71 41.56 61.09 41.99 61.2 44.1 61.84 44.51 61.91 44.85 62 45.41 62.07 45.82 62.3 45.81 62.32 45.67 62.58 45.62 62.79 45.49 63.1 45.48 63.3 45.4 63.55 45.38 63.81 45.28 64.23 45.3 64.36 45.27 64.57 44.86 66.13 44.77 66.28 44.61 66.72 44.56 66.77 44.48 67 44.22 67.51 44.16 67.7 44.01 68 43.94 68.2 43.78 68.42 43.6 68.8 43.52 68.92 43.48 69.07 43.3 69.36 43.24 69.54 43.17 69.64 43.17 69.69 43.05 69.96 43.03 70.06 42.89 70.31 42.86 70.57 42.93 70.82 43.09 70.94 43.66 70.81 44.1 70.55 44.29 70.37 44.59 70.17 44.8 69.96 45.13 69.7 45.22 69.59 45.48 69.35 46.09 68.79 46.52 68.24 46.59 68.18 46.91 67.84 47.02 67.68 47.13 67.58 47.4 67.07 47.5 66.92 47.57 66.76 47.73 66.51 47.77 66.39 47.84 66.3 47.88 66.14 47.99 65.98 48.09 65.72 48.26 65.41 48.44 64.89 48.59 64.69 48.66 64.52 48.77 64.41 49.04 64.07 49.4 63.81 49.61 63.79 49.79 63.86 50.07 64.13 50.14 64.16 50.28 64.31 50.38 64.38 50.44 64.45 50.83 64.74 50.91 64.83 51.22 65.05 51.3 65.17 51.47 65.29 51.73 65.61 51.9 65.76 51.98 65.91 52.18 66.17 52.25 66.31 52.57 66.74 52.66 66.94 52.78 67.09 52.83 67.24 52.95 67.41 53.02 67.64 53.12 67.84 53.14 67.95 53.37 68.4 53.44 68.62 53.53 68.75 53.57 68.86 53.61 68.88 53.75 69.07 53.84 69.14 54.09 69.14 54.32 68.89 54.34 68.8 54.51 68.35 54.58 67.69 54.59 67.23 54.63 66.33 54.59 66.22 54.52 65.5 54.48 65.23 54.38 65.04 54.38 64.95 54.21 64.54 54.14 64.22 53.97 63.86 53.95 63.75 53.84 63.6 53.74 63.4 53.47 63.02 53.39 62.82 53.16 62.53 53.09 62.41 52.99 62.35 52.91 62.24 52.78 62.04 52.63 61.88 52.78 61.77 52.98 61.7 53.53 61.45 53.69 61.41 53.88 61.3 53.97 61.29 54.28 61.2 54.86 61 55.18 60.93 55.53 60.72 55.7 60.65 55.79 60.65 56.14 60.48 57.31 60.13 57.57 60.07 57.75 60.05 57.99 59.99 58.26 59.96 58.74 59.77 58.94 59.63 59.06 59.44 59.06 59.2 58.99 59.15 58.95 59.07 58.85 59.04 58.44 58.8 58.04 58.71 57.74 58.61 57.42 58.57 56.93 58.5 56.8 58.53 56.43 58.51 55.65 58.52 55.42 58.53 55 58.58 54.77 58.59 54.37 58.68 54.22 58.68 53.47 58.79 53.2 58.82 52.8 58.93 52.48 58.96 52.02 59.03 51.81 59 51.66 58.91 51.59 58.74 51.53 58.46 51.55 58.22 51.7 57.74 51.78 57.35 51.9 56.91 51.91 56.77 52.07 56.2 52.06 56.12 52.27 55.54 52.4 55 52.53 54.74 52.55 54.63 52.82 54.08 53.15 53.65 53.38 53.23 53.54 52.74 53.53 52.48 53.4 52.31 53.15 52.3 52.88 52.36 51.69 52.82 51.53 52.85 51.26 52.99 51.21 53 51.18 53.05 51.08 53.09 50.83 53.23 50.69 53.38 49.89 54.04 49.66 54.32 49.29 54.7 48.98 55.13 48.94 55.15 48.7 55.51 48.51 55.97 48.33 56.44 48.3 56.75 48.21 57.17 48.23 57.22 48.1 58.2 48.04 58.51 47.91 58.76 47.84 58.78 47.77 58.85 47.47 58.86 47.19 58.77 46.51 58.6 45.75 58.53 45.08 58.57 44.72 58.62 44.49 58.66 44.06 58.72 43.63 58.78 43.15 58.89 42.95 58.91 42.38 59.01 41.98 59.03 41.71 59.02 41.68 58.98 41.57 59 41.14 58.95 41.1 58.97 41.01 58.93 40.69 58.89 40.6 58.9 40.41 58.84 40.24 58.85 40.18 58.82 39.99 58.81 39.67 58.91 39.51 59.14 39.48 59.4"/><path class="cls-1" d="M615.87,323.06a40.63,40.63,0,1,0,40.87,40.62,40.79,40.79,0,0,0-40.87-40.62Zm24.78,17.69a86.25,86.25,0,0,0-16.48-2.34,22.48,22.48,0,0,0-4.52-8.16,33.93,33.93,0,0,1,21,10.5Zm-27.31-10.62c.84-.06,1.68-.1,2.54-.1.67,0,1.33,0,2,.06,1.95,1.29,3.72,4.2,5.17,8.25-2.33-.12-4.75-.19-7.21-.19s-5.12.08-7.6.21c1.43-4,3.19-6.92,5.12-8.23Zm-1.8.18a22.79,22.79,0,0,0-4.45,8.12,89.46,89.46,0,0,0-15.89,2.21,33.92,33.92,0,0,1,20.34-10.33Zm-21.39,11.5a80.17,80.17,0,0,1,16.65-2.52,59.07,59.07,0,0,0-1.79,7c-8.32-.48-14.21-1.48-16.41-2.53.5-.67,1-1.32,1.55-2Zm-1.9,41.33c1.77-1,7.72-2.38,16.43-3.1a64.08,64.08,0,0,0,1.55,6.91c-8.05-.4-14-1.28-16.8-2.26-.41-.5-.8-1-1.18-1.55Zm2.19,2.75c3.61,1,9.57,1.6,16,1.92A25.88,25.88,0,0,0,611,397a33.93,33.93,0,0,1-20.58-11.1Zm53.42-3.25c-1.75-1.29-7.91-2.62-15.9-3.35a2.16,2.16,0,0,0-.1.84c8.72.79,14.42,2.28,15.52,3.19-.27.36-.54.73-.82,1.08-1.86.82-6.2,1.67-12.52,2.21.11.28.23.56.35.82a56.93,56.93,0,0,0,11.16-1.79,33.93,33.93,0,0,1-21.36,11.43,21.5,21.5,0,0,0,3.56-6.27c-.26.26-.55.55-.89.85l-1.13,1a13.91,13.91,0,0,1-3.27,4.61c-.85.07-1.71.11-2.58.11q-1.58,0-3.13-.15c-1.93-1.67-3.67-5-5.05-9.34,2.63.11,5.32.17,7.95.17,1.16,0,2.37,0,3.62,0,0-.24.08-.53.12-.85-1.21,0-2.45,0-3.73,0-2.91,0-5.66-.06-8.21-.17A63.09,63.09,0,0,1,605.8,380c3-.22,6.41-.36,10-.36,2.36,0,4.59.06,6.71.16l.33-.83c-2.27-.12-4.62-.19-7-.19-3.46,0-6.9.14-10.16.38-.22-1.3-.39-2.66-.55-4a3.64,3.64,0,0,1-1.05.74q.2,1.74.47,3.39c-7.85.65-14.37,1.9-16.73,3.28a33.35,33.35,0,0,1-5.55-14.63c3.53,2,11.07,3.5,19.82,4.24.05-.29.09-.57.13-.83-10.13-.85-17.37-2.61-20.06-4.48-.09-1-.15-2-.15-3,1.45-1.07,4.4-2.1,8.54-3-.14-.26-.3-.52-.44-.78a26.74,26.74,0,0,0-8.08,2.74,33.31,33.31,0,0,1,6.08-18.32c2.61,1.34,9.22,2.23,16.76,2.67a86.93,86.93,0,0,0-1.17,9.36l1.11-.07a88.93,88.93,0,0,1,1.16-9.23c3.17.16,6.48.25,9.7.25,1.64,0,3.41,0,5.21-.07a5.1,5.1,0,0,1,.05-.84c-1.68,0-3.43.07-5.27.07-3.43,0-6.62-.09-9.54-.23a58.73,58.73,0,0,1,1.84-7.12c2.46-.14,5.1-.22,7.89-.22s5.16.07,7.51.2c.21.64.41,1.3.61,2a4.75,4.75,0,0,1,.79-1.08c-.09-.28-.17-.57-.26-.84,8.28.52,14.39,1.71,17.27,2.69.45.53.89,1.06,1.3,1.61-1.46.86-5.8,1.8-12.38,2.39.13.27.28.55.42.81,5.61-.51,10.45-1.34,12.41-2.58a33.31,33.31,0,0,1,6.26,18.9c-3.29-2.4-12-4.08-22-4.83-.1-1.75-.25-3.44-.43-5.1a1.49,1.49,0,0,1-.7-.18c-.15-.09-.3-.22-.46-.34.21,1.79.37,3.64.48,5.54-2.65-.18-5.39-.27-8.14-.32l.54.31a1.93,1.93,0,0,1,.52.54c2.49.05,4.87.16,7.13.31.08,1.62.12,3.27.12,4.95,0,2.57-.1,5.08-.28,7.5-3.39.22-7.05.35-10.94.35-3.21,0-6.25-.09-9.12-.25,0,.28-.09.55-.15.82,3,.17,6.16.28,9.27.28,3.66,0,7.34-.12,10.88-.36-.08,1-.19,2-.3,2.92l1.14-.64.06,0c.08-.77.16-1.54.23-2.34,9.93-.73,18.54-2.36,22-4.7a33.33,33.33,0,0,1-5.69,15.11Zm-16.24-11.25c.17-2.39.26-4.87.26-7.42q0-2.48-.12-4.87c11.77.88,19.92,3,22,5.09q0,1.11-.11,2.2c-2.25,2.09-10.37,4.14-22,5" transform="translate(-575 -323)"/></svg>