<svg id="Layer_1" data-name="Layer 1" xmlns="http://www.w3.org/2000/svg" viewBox="0 0 1344 172.08"><defs><style>.cls-1{fill:#fff;}</style></defs><title>logo_lifewatch_transp</title><path class="cls-1" d="M729.93,365.25Q718.3,395.11,706.67,425c-4.4,11.31-8.9,22.59-13.06,34-1.51,4.15-3.61,6-8.27,5.84-8.54-.36-17.1-.1-26.51-.1-1.54-14.65-3.08-28.77-4.51-42.9-3-29.61-6-59.22-8.85-88.84-.49-5.11-3.9-6.87-7.75-8.14-4.65-1.52-5.44-4.45-4.69-8.8.78-4.52,3.79-4.78,7.36-4.77,14.79.05,29.58,0,44.37.05a46.2,46.2,0,0,1,5.45.64c.76,8-1.63,13.13-10.07,14.2-4.72.6-6.28,3.25-5.73,8.52,2.94,28.42,5.33,56.9,8,85.35a26.39,26.39,0,0,0,2.91,10.37q12.39-31.45,24.78-62.91c6.36-16.17,12.93-32.26,18.89-48.57,2.13-5.82,5-8,11.37-7.8,12.32.48,12.73,0,14.22,12,3.8,30.47,7.19,61,10.76,91.48.6,5.16,1.28,10.32,3.7,16l42.55-102.19c-3.37-1.18-5.92-2.22-8.56-3-3.79-1.08-6.37-2.57-5.45-7.38.88-4.59,2.45-7,7.81-6.91,15,.35,29.94.12,45.27.12.8,6.81-.12,11.6-6.85,13.44-5.78,1.58-8.65,5.77-11,11.08C814.62,376.44,796.15,416.95,778,457.6c-2.34,5.24-5.13,7.7-11.15,7.25-7.55-.57-15.17-.14-23.28-.14L732.13,365.3Z" transform="translate(-13 -296.41)"/><path class="cls-1" d="M1356.65,311.42c1.58,9.58-2.24,13.78-10.24,14.81-4.82.62-6.33,3.93-7,8.42-5.47,35.5-11,71-16.85,106.44-1,5.91.8,8.68,6.24,9.4,6.7.89,7.35,5.1,5.7,10.23-.51,1.59-2.68,3.74-4.11,3.76-18.55.25-37.1.17-55.77.17-.48-8.13,1.11-13.58,9.79-14.9,2.66-.4,6.68-3.06,7.08-5.25,3-16.09,5.23-32.31,7.93-49.93h-12.13c-11.21,0-22.43.14-33.63-.06-4-.07-6.3,1.11-6.91,5.24-2.18,14.83-4.57,29.63-6.51,44.49-.2,1.56,1.62,4.15,3.19,5,3,1.67,6.56,2.45,10,3.63l-2.06,11.37h-58.64c-1.15-11.2-1.25-11.59,9.12-14.23,5.66-1.44,7.3-4.38,8.1-9.82q7.78-52.59,16.4-105.06c1-5.78-.21-8.6-5.87-9.49-5-.79-7.29-3.16-6.4-8.73.91-5.72,4.54-5.72,8.82-5.69,14.79.08,29.58,0,44.37.05,2.33,0,4.65.31,6.88.47,1.11,10.13.5,11.53-8.82,13.93-5.39,1.39-7.81,4.1-8.52,9.55-1.72,13.16-3.89,26.26-6,40.32,4.05.23,7.49.57,10.93.59,10.73.07,21.49-.42,32.19.19,6.76.38,9.17-2.18,10-8.52,1.51-11.79,3.44-23.54,5.63-35.22,1.13-6-3.34-6.27-6.72-6.94-6.77-1.35-6.63-5.8-5.3-10.67.39-1.42,2.44-3.4,3.75-3.41C1319.73,311.35,1338.27,311.42,1356.65,311.42Z" transform="translate(-13 -296.41)"/><path class="cls-1" d="M548.08,394.41v52.51c10.74,0,21.37.24,32-.26,1.61-.08,4-3.4,4.44-5.56,2.73-13,10.63-17.23,23.12-14.93,2.5.46,5.17.07,8.32.07v38H500a71.28,71.28,0,0,0-.42-7.22c-.81-5.08,1.43-7.61,6.33-8.19,7-.82,8.93-4.66,8.86-11.6-.36-32.91-.31-65.82,0-98.73.05-6.13-1.24-9.66-7.77-11.16-7.25-1.67-9.46-5.89-7-12.85.58-1.65,4.31-3.09,6.61-3.11,21.94-.23,43.88-.15,65.82-.15,11.69,0,23.37.13,35.06,0,4.53-.07,6.37,1.42,6.22,6.2-.31,9.52-.09,19.05-.09,29.73-8.09,0-15.86.28-23.58-.24-1.51-.1-3.56-3.12-4.08-5.12-2.89-11.11-9.73-15.05-20.94-13.29-5.3.83-10.85.14-16.82.14v48.35c7.73,0,15.37.52,22.86-.32,2.22-.25,4.16-4.23,5.94-6.71s3-7.4,5.11-7.82c5.47-1.09,11.34-.54,17,0,.95.09,2.24,3.4,2.27,5.24.2,12.4,0,24.8.16,37.2.05,4.38-1.73,6.1-6,5.57a11.92,11.92,0,0,0-3.57,0c-8.27,1.51-13.67-1.14-15.44-9.92-.86-4.26-3.6-6.14-8.27-5.84C561.86,394.71,555.42,394.41,548.08,394.41Z" transform="translate(-13 -296.41)"/><path class="cls-1" d="M844.86,447.49l13.61,5c.11,12.19.11,12.19-11.23,12.2-8.82,0-17.65.09-26.47,0-11.84-.15-10.4,2.1-13.22-12.28,13-1.63,15.23-13.17,19.84-22.49Q855,374.24,882.12,318.35c2.49-5.13,5.43-7.61,11.39-7.2,7.6.53,15.26.24,22.89.12,4.13-.07,5.91,1.64,6.35,5.82,4.28,40.72,8.73,81.41,13,122.13.59,5.55,1.69,10.33,8.27,11.36,5.53.87,4.75,4.9,4.38,8.77-.39,4.11-2.56,5.5-6.67,5.44-14.74-.19-29.49-.08-44.49-.08,0-6.92-.32-13,7.43-15.66,1.34-.46,2.74-3.36,2.63-5-.65-9.73-1.53-19.47-2.89-29.13-.25-1.77-3-4.47-4.72-4.53-11.43-.41-22.89-.34-34.33-.09-1.74,0-4.34,1.39-5,2.84C855.07,424.25,850.17,435.57,844.86,447.49Zm57.44-55.71-5.37-53.56-2.1-.22-24.55,53.79Z" transform="translate(-13 -296.41)"/><path class="cls-1" d="M424.09,394.4c0,17.07-.12,33,.18,48.94,0,1.55,2.46,3.3,4.11,4.5,1.05.77,2.72.7,4.12,1,11.6,2.43,11.6,2.42,10.22,15.32H377.5c-3-11.71-2.52-13,8.34-16.27,4.38-1.3,5.22-3.68,5.21-7.75-.12-34.34-.33-68.69.15-103,.09-6.85-3.11-8.66-8.34-9.84-3.91-.89-6.59-2.08-6.74-7.27-.19-6.78,1.77-9,8.79-9q48.65.51,97.31,0c6.53-.06,8.78,1.81,8.33,8.47-.59,8.77-.14,17.61-.14,27.57-8.06,0-15.85.4-23.55-.29-1.85-.17-4.3-3.71-4.9-6.1-2.63-10.49-9.11-13.74-19.39-12.29-5.59.79-11.37.14-18,.14-.21,4.19-.54,7.87-.56,11.56-.07,10.25.15,20.51-.08,30.76-.1,4.65,1.6,6.55,6.22,6.16a33.56,33.56,0,0,1,7.86,0c9,1.4,15-1.23,17.34-10.88.49-2,4.11-3.59,6.57-4.79,1.35-.66,3.28-.14,5-.14,11,0,11,0,11,10.72,0,12.36,0,24.72,0,38-6.56,0-12.5.49-18.26-.28-1.89-.25-4.22-3.52-4.84-5.81-2.08-7.74-6.46-10.78-14.5-9.64C435.37,395,430.31,394.4,424.09,394.4Z" transform="translate(-13 -296.41)"/><path class="cls-1" d="M1181,440.9c-.48,3.65-.88,8.35-1.83,12.92a6.62,6.62,0,0,1-3.18,4.12c-19.72,9.08-40.16,14-61.67,7.77-24-6.92-36.91-24.18-39.91-48.11-3.35-26.74,1.16-52.42,17.08-74.93,18.48-26.12,44.65-36.22,75.82-33.91,9.14.68,18.09,3.69,27.15,5.56,4.12.85,5.29,3.31,4.67,7.28-1.18,7.52-2.12,15.08-3.2,22.62-.1.7-.36,1.91-.67,2-6.31.87-12.62,1.95-19,2.11-1.57,0-3.68-2.75-4.71-4.69s-1.16-4.58-1.67-6.9c-2.17-9.94-3-10.39-12.77-9-14.24,2-25.74,8.82-34.08,20.27-15.61,21.42-20.38,45.4-14.15,71.14,3.84,15.87,16.32,26,32.74,25.76C1154.56,444.69,1167.47,442.34,1181,440.9Z" transform="translate(-13 -296.41)"/><path class="cls-1" d="M966.28,464.27c0-11.43-.08-12.27,10-13.4,10.27-1.15,12.48-6.68,13.76-15.8,4.94-35.05,10.78-70,16.33-105.26-6.34-2.33-10.76-2-14.41,4.45-8.58,15.24-8.85,15.09-26.44,14.25-.92,0-1.83-.28-3.79-.6,1.7-11.39,3.09-22.63,5.35-33.68.3-1.45,5-2.81,7.71-2.83,30-.2,60.09-.13,90.13-.13h17.2c-1.81,12.37-3.28,23.38-5.22,34.31-.22,1.23-3,2.72-4.73,2.83-5.69.35-11.42.13-17.86.13-1.51-4.95-3.44-9.78-4.39-14.79-1-5.25-4.49-6.17-8.32-5-2.22.68-5,3.45-5.37,5.63-5.94,36.13-11.48,72.33-17.26,108.49-.65,4.06.92,5.64,4.57,6.36,4.87,1,9.7,2.13,15.35,3.4l-1.72,11.63Z" transform="translate(-13 -296.41)"/><path class="cls-1" d="M291.3,426.23v38c-2.53.16-5,.46-7.55.47q-47.92,0-95.84-.05c-3.14,0-7.82,1.82-8.1-4.06-.24-5.12-1.6-11,6.27-11.89,7.61-.82,8.92-5.24,8.84-12.27q-.57-49.34,0-98.7c.06-6.12-1.73-9.21-7.71-10.38-3.54-.69-7.45-1.12-7.6-6.65-.22-8.53.31-9.53,8.86-9.55,16,0,31.95-.14,47.92.16,2.17,0,6.13,2.28,6.11,3.44-.07,4.11,3.12,9.48-3.91,11.86-11.32,3.82-11.23,4.11-11.23,16.16,0,31.95.16,63.89-.13,95.84-.06,6.4,2,8.53,8.19,7.94a82.69,82.69,0,0,1,15,0c5.32.48,8.13-1.41,10.13-6.47,5.55-14,5.77-13.9,20.55-13.89Z" transform="translate(-13 -296.41)"/><path class="cls-1" d="M363.71,464.31h-60.4c-3.62-10.79-2.58-13.41,7.74-16.35,4.64-1.32,5.6-3.77,5.58-8.19-.17-33.62-.28-67.24.07-100.86.07-6.8-1.44-10.81-8.59-11.8-3.66-.51-6.44-1.76-6.36-6.74.15-9-.06-9.16,9-9.18,15.5,0,31-.07,46.5.05,3,0,7.48-1.26,7.33,4.11-.12,4.25,2.61,10.38-4.71,11.32-9.25,1.18-10.67,6.44-10.55,14.8.48,32.42.22,64.86.17,97.28,0,4.24.11,7.61,5.47,9.12C366.28,451.07,366.38,451.72,363.71,464.31Z" transform="translate(-13 -296.41)"/><path class="cls-1" d="M88.73,334.28c.22,21.15-17,38.62-37.85,38.5A38.31,38.31,0,0,1,13,334.91c-.13-21.08,17.09-38.54,38-38.5A38,38,0,0,1,88.73,334.28Z" transform="translate(-13 -296.41)"/></svg>