<svg id="Layer_1" data-name="Layer 1" xmlns="http://www.w3.org/2000/svg" viewBox="0 0 360.01 337.43"><defs><style>.cls-1{fill:#fff;}</style></defs><title>SCAR logo_white_transp</title><path class="cls-1" d="M268.46,255.68l-.81,3.18-2.4-.61,2.41-9.5,2.4.61-.81,3.17,11.5,2.92-.8,3.15Z" transform="translate(-237.79 -126.48)"/><path class="cls-1" d="M269,244.45l1.07-3.07,5.53,1.92,1.18-3.39L271.2,238l1.07-3.07,13.54,4.71-1.07,3.07-5.67-2-1.18,3.39,5.67,2-1.07,3.07Z" transform="translate(-237.79 -126.48)"/><path class="cls-1" d="M274.34,229.81l3.42-7.63,2.26,1-2.08,4.66,3,1.37,1.94-4.33,2.26,1-1.94,4.33,3.26,1.46,2.16-4.83,2.26,1-3.49,7.8Z" transform="translate(-237.79 -126.48)"/><path class="cls-1" d="M284.4,209.81l1.68-2.79,12.29,7.38-1.68,2.79Z" transform="translate(-237.79 -126.48)"/><path class="cls-1" d="M288.9,202.46l1.74-2.48,8.86,1.47,0,0-6.64-4.65,1.76-2.51,11.74,8.23-1.63,2.32-9.27-1.52,0,0,6.93,4.86-1.76,2.51Z" transform="translate(-237.79 -126.48)"/><path class="cls-1" d="M301.38,189.77l-2.1,2.51-1.9-1.59,6.29-7.52,1.9,1.59-2.1,2.51,9.1,7.61-2.09,2.5Z" transform="translate(-237.79 -126.48)"/><path class="cls-1" d="M306.6,180l5.84-6,1.77,1.73-3.57,3.65,2.39,2.34,3.32-3.39,1.77,1.73-3.32,3.39,2.55,2.5,3.7-3.78,1.77,1.73-6,6.11Z" transform="translate(-237.79 -126.48)"/><path class="cls-1" d="M316.07,170.58l3.53-3.07c2.22-1.93,4.57-1.78,6.12,0a3.34,3.34,0,0,1,.38,4.12c1.43-.3,3.92,1.79,6.84,3.29l-2.55,2.22L328,175.61c-2.72-1.75-3-1.81-4.07-.91l4,4.56-2.45,2.13Zm7,1.58a1.58,1.58,0,0,0,.2-2.46c-.74-.86-1.52-.82-2.42,0l-.74.65,2.19,2.52Z" transform="translate(-237.79 -126.48)"/><path class="cls-1" d="M327.08,161.3l2.45-1.77,7.9,4.29,0,0-4.76-6.57,2.48-1.8L343.6,167l-2.29,1.66L333,164.24l0,0,5,6.85-2.48,1.8Z" transform="translate(-237.79 -126.48)"/><path class="cls-1" d="M341.95,151l2.9-1.74,10.64,10.45-2.7,1.62-2.11-2.21-2.78,1.66.94,2.91-2.7,1.62Zm7.12,6.37-3.63-3.9,0,0,1.7,5.05Z" transform="translate(-237.79 -126.48)"/><path class="cls-1" d="M353.77,147.29l-2.92,1.48-1.12-2.21,8.76-4.42,1.12,2.21-2.93,1.48,5.35,10.6-2.91,1.47Z" transform="translate(-237.79 -126.48)"/><path class="cls-1" d="M362.31,140.48l3-1.28,5.63,13.19-3,1.28Z" transform="translate(-237.79 -126.48)"/><path class="cls-1" d="M375,135.34c2.52-.87,6,0,7.74,5.13,1.83,5.3-.65,8-2.95,8.79-2.62.9-6-.17-7.78-5.25C370.38,139.41,372.32,136.25,375,135.34Zm3.88,11.26c1.43-.49,1.84-1.81.72-5.07-.81-2.34-1.85-4.16-3.68-3.53-1.67.57-1.64,2.39-.73,5S377.15,147.18,378.84,146.6Z" transform="translate(-237.79 -126.48)"/><path class="cls-1" d="M385.24,132.29l2.94-.71,5.69,7h0L392,130.64l3-.72,3.39,13.94-2.76.67-6-7.26h0l2,8.22-3,.72Z" transform="translate(-237.79 -126.48)"/><path class="cls-1" d="M402.91,128.43l3.34-.51,5.88,13.7-3.11.47-1.11-2.85-3.2.49-.24,3.05-3.11.47Zm4.17,8.58-1.88-5h0l-.34,5.32Z" transform="translate(-237.79 -126.48)"/><path class="cls-1" d="M414.07,127l3.25-.24.85,11.73,5.24-.38.19,2.58-8.48.62Z" transform="translate(-237.79 -126.48)"/><path class="cls-1" d="M443.67,140.32a5,5,0,0,1-3.4.88c-3.42-.2-5.65-3.14-5.39-7.55s2.72-7.35,6.24-7.15a7,7,0,0,1,3.18,1l-.16,2.75a4.79,4.79,0,0,0-2.41-1c-1.87-.11-3.35,1.26-3.54,4.4s.82,4.76,2.83,4.88a4.91,4.91,0,0,0,2.79-1Z" transform="translate(-237.79 -126.48)"/><path class="cls-1" d="M454.56,127.9c2.64.38,5.3,2.79,4.53,8.11-.81,5.55-4.24,6.81-6.65,6.46-2.74-.4-5.29-2.91-4.51-8.23C448.63,129.42,451.79,127.5,454.56,127.9Zm-1.71,11.79c1.5.22,2.47-.77,3-4.18.36-2.45.26-4.55-1.66-4.82-1.75-.25-2.55,1.37-3,4.16S451.08,139.43,452.85,139.69Z" transform="translate(-237.79 -126.48)"/><path class="cls-1" d="M468,130.61l-2.31,9.6a1.73,1.73,0,0,0,1.26,2.31c1.22.29,1.91-.38,2.21-1.65l2.27-9.44,3.17.76-2.21,9.17c-.74,3.06-2.77,4.58-6.08,3.79-2.9-.7-4.53-2.62-3.7-6.1l2.22-9.21Z" transform="translate(-237.79 -126.48)"/><path class="cls-1" d="M479.89,133.74l2.86,1,1.05,8.93h0l2.62-7.67,2.9,1-4.64,13.57-2.68-.92-1.12-9.33h0l-2.74,8-2.9-1Z" transform="translate(-237.79 -126.48)"/><path class="cls-1" d="M496.91,154.81a5,5,0,0,1-3.49-.37c-3.13-1.38-4.18-4.93-2.4-9s5.12-5.93,8.35-4.51a7,7,0,0,1,2.64,2l-1.11,2.52a4.81,4.81,0,0,0-1.91-1.76c-1.71-.76-3.58,0-4.86,2.88s-.9,4.75.94,5.56a4.94,4.94,0,0,0,3,0Z" transform="translate(-237.79 -126.48)"/><path class="cls-1" d="M506.67,144.68l2.88,1.51-6.64,12.71L500,157.39Z" transform="translate(-237.79 -126.48)"/><path class="cls-1" d="M514.09,148.67l2.79,1.68-6.08,10.06,4.49,2.71L514,165.34l-7.28-4.39Z" transform="translate(-237.79 -126.48)"/><path class="cls-1" d="M532.26,160.75l5.91,4.68-1.54,1.94-3.36-2.66-2.1,2.65,3.24,2.57-1.54,1.94-3.24-2.57L525.9,174l-2.55-2Z" transform="translate(-237.79 -126.48)"/><path class="cls-1" d="M545.43,171.66c1.95,1.82,2.76,5.32-.91,9.24-3.83,4.1-7.37,3.18-9.14,1.51-2-1.89-2.68-5.41,1-9.33C539.69,169.52,543.39,169.75,545.43,171.66Zm-8.13,8.7c1.1,1,2.46.78,4.81-1.74,1.69-1.81,2.81-3.59,1.39-4.9s-2.88-.33-4.8,1.72S536,179.14,537.3,180.36Z" transform="translate(-237.79 -126.48)"/><path class="cls-1" d="M552.85,179.23l3.13,3.49c2,2.19,1.85,4.55.1,6.12a3.34,3.34,0,0,1-4.11.44c.32,1.43-1.73,4-3.19,6.89l-2.26-2.52,1.48-2.37c1.71-2.75,1.76-3.07.85-4.09l-4.5,4-2.17-2.42Zm-1.47,7.07a1.58,1.58,0,0,0,2.46.17c.84-.76.8-1.53,0-2.42l-.66-.73-2.49,2.23Z" transform="translate(-237.79 -126.48)"/><path class="cls-1" d="M558.91,202.75c-.15,1.75,0,2.64.46,3.35a1.22,1.22,0,0,0,1.73.42c1.73-1.18.51-5.77,3.39-7.73a3.84,3.84,0,0,1,5.34,1.34,6.36,6.36,0,0,1,1,3.08l-2.22,1.52a5.6,5.6,0,0,0-.71-2.87c-.44-.64-1.08-.87-1.56-.54-1.4,1-.5,6-3.31,7.88A4,4,0,0,1,557.4,208a6.65,6.65,0,0,1-1-3.54Z" transform="translate(-237.79 -126.48)"/><path class="cls-1" d="M566.9,221.42a5,5,0,0,1-2.6-2.36c-1.71-3-.47-6.44,3.34-8.65s7.64-1.77,9.4,1.29a7,7,0,0,1,.93,3.2l-2.38,1.38a4.79,4.79,0,0,0-.5-2.55c-.93-1.62-2.89-2.11-5.62-.54s-3.53,3.3-2.52,5a4.91,4.91,0,0,0,2.37,1.78Z" transform="translate(-237.79 -126.48)"/><path class="cls-1" d="M580.78,219l1.44,2.92-12.86,6.35-1.44-2.92Z" transform="translate(-237.79 -126.48)"/><path class="cls-1" d="M584.43,226.66l3.21,7.72-2.29,1-2-4.71-3.08,1.28,1.82,4.38-2.29,1L578,232.85l-3.29,1.37,2,4.88-2.29,1-3.28-7.89Z" transform="translate(-237.79 -126.48)"/><path class="cls-1" d="M589.44,239.2l.91,2.88-6.55,6.16v0l7.73-2.45.93,2.92-13.68,4.34-.86-2.7,6.84-6.44v0l-8.07,2.56-.93-2.92Z" transform="translate(-237.79 -126.48)"/><path class="cls-1" d="M582.61,265.4a5,5,0,0,1-1.77-3c-.75-3.34,1.48-6.29,5.78-7.25s7.82.6,8.58,4a7,7,0,0,1-.07,3.33l-2.68.6a4.79,4.79,0,0,0,.28-2.58c-.41-1.82-2.13-2.88-5.2-2.2s-4.35,2.09-3.91,4.06a4.92,4.92,0,0,0,1.72,2.41Z" transform="translate(-237.79 -126.48)"/><path class="cls-1" d="M596.63,267.4l1.17,8.28-2.45.35-.71-5.05-3.31.47.66,4.7-2.45.35-.66-4.7-3.53.5.74,5.24-2.45.35-1.2-8.46Z" transform="translate(-237.79 -126.48)"/><path class="cls-1" d="M266.08,309.87c-1,1.48-1.26,2.32-1.17,3.17a1.22,1.22,0,0,0,1.34,1.18c2.09-.23,3.15-4.86,6.62-5.25a3.84,3.84,0,0,1,4.09,3.68,6.34,6.34,0,0,1-.53,3.21l-2.67.3a5.59,5.59,0,0,0,.71-2.87c-.09-.77-.54-1.27-1.13-1.21-1.69.19-3.24,5-6.62,5.41a4,4,0,0,1-4.45-3.68,6.66,6.66,0,0,1,.74-3.61Z" transform="translate(-237.79 -126.48)"/><path class="cls-1" d="M265.86,329.83a5,5,0,0,1-1.65-3.09c-.61-3.37,1.72-6.23,6.06-7s7.79.91,8.42,4.38a7,7,0,0,1-.2,3.33l-2.71.49a4.8,4.8,0,0,0,.39-2.57c-.34-1.84-2-3-5.11-2.4s-4.43,1.92-4.07,3.9a4.92,4.92,0,0,0,1.63,2.48Z" transform="translate(-237.79 -126.48)"/><path class="cls-1" d="M279.82,330.38l.77,3.16-13.93,3.41-.77-3.16Z" transform="translate(-237.79 -126.48)"/><path class="cls-1" d="M281.45,336.89l2.46,8-2.37.73-1.5-4.88-3.19,1,1.4,4.54-2.37.73-1.4-4.54-3.41,1.05,1.56,5.06-2.37.73-2.52-8.17Z" transform="translate(-237.79 -126.48)"/><path class="cls-1" d="M284.81,347.49l1.12,2.81-6.1,6.61,0,0,7.53-3,1.13,2.85-13.33,5.3-1-2.63,6.36-6.91,0,0-7.86,3.13-1.13-2.85Z" transform="translate(-237.79 -126.48)"/><path class="cls-1" d="M288.59,362.77l-1.45-2.94,2.22-1.09,4.33,8.8-2.22,1.09L290,365.69l-10.64,5.24L277.95,368Z" transform="translate(-237.79 -126.48)"/><path class="cls-1" d="M294.91,369.62l1.61,2.83L284,379.52l-1.6-2.83Z" transform="translate(-237.79 -126.48)"/><path class="cls-1" d="M298.3,375.51l4.07,6.34-2.09,1.34-2.31-3.6-2.85,1.82,2.23,3.48-2.09,1.34L293,382.75,288,386l-1.76-2.74Z" transform="translate(-237.79 -126.48)"/><path class="cls-1" d="M303.89,384l1.91,2.64L294.17,395l-1.91-2.64Z" transform="translate(-237.79 -126.48)"/><path class="cls-1" d="M302.81,404.52a5,5,0,0,1-2.94-1.91c-2.16-2.65-1.5-6.28,1.92-9.07s7.25-3,9.48-.23a7,7,0,0,1,1.42,3l-2.13,1.74a4.79,4.79,0,0,0-.9-2.43c-1.18-1.45-3.19-1.62-5.63.37s-3,3.82-1.68,5.38a4.92,4.92,0,0,0,2.62,1.38Z" transform="translate(-237.79 -126.48)"/><path class="cls-1" d="M317.3,419.39a5,5,0,0,1-3.15-1.54c-2.47-2.37-2.26-6.06.79-9.24s6.84-3.83,9.39-1.39a7,7,0,0,1,1.79,2.81l-1.9,2a4.79,4.79,0,0,0-1.19-2.31c-1.35-1.29-3.37-1.22-5.55,1.06s-2.46,4.16-1,5.55a4.91,4.91,0,0,0,2.77,1.05Z" transform="translate(-237.79 -126.48)"/><path class="cls-1" d="M332.66,414.54c2.06,1.69,3.11,5.12-.29,9.28-3.54,4.34-7.13,3.66-9,2.12-2.15-1.75-3-5.21.37-9.38C326.8,412.79,330.5,412.77,332.66,414.54Zm-7.53,9.22c1.17,1,2.51.61,4.69-2.05,1.57-1.92,2.56-3.76,1.06-5s-2.89-.14-4.67,2S323.75,422.63,325.13,423.76Z" transform="translate(-237.79 -126.48)"/><path class="cls-1" d="M338.85,419.73l2.44,1.64-.56,6.73,6-3.05,2.44,1.64-8,11.89-2.54-1.71,5.12-7.61,0,0-5.37,2.94-.52-.35.7-6.08,0,0-5.12,7.61-2.54-1.71Z" transform="translate(-237.79 -126.48)"/><path class="cls-1" d="M351.66,428.17l2.59,1.39.11,6.76,5.7-3.64,2.59,1.39-6.79,12.63-2.7-1.45,4.34-8.08,0,0-5.05,3.46-.56-.3.1-6.12,0,0-4.34,8.08-2.7-1.45Z" transform="translate(-237.79 -126.48)"/><path class="cls-1" d="M365.66,435.37l3,1.33-5.86,13.09-3-1.33Z" transform="translate(-237.79 -126.48)"/><path class="cls-1" d="M373,441.19,370,440l.88-2.32,9.17,3.47-.88,2.32-3.06-1.16-4.2,11.1-3-1.15Z" transform="translate(-237.79 -126.48)"/><path class="cls-1" d="M383.51,444.87l-3.14-.94.71-2.37,9.39,2.81-.71,2.37-3.14-.94-3.4,11.36-3.12-.93Z" transform="translate(-237.79 -126.48)"/><path class="cls-1" d="M392.6,444.89l8.16,1.81-.54,2.42-5-1.1-.72,3.26,4.63,1-.54,2.42-4.63-1-.77,3.49,5.17,1.15-.54,2.42-8.34-1.85Z" transform="translate(-237.79 -126.48)"/><path class="cls-1" d="M403.49,447.19l8.27,1.21-.36,2.45-5-.74-.49,3.3,4.69.69-.36,2.45-4.69-.69L405,459.4l5.24.77-.36,2.45-8.45-1.24Z" transform="translate(-237.79 -126.48)"/><path class="cls-1" d="M427.25,449.2c2.67,0,5.61,2.09,5.52,7.47-.1,5.61-3.34,7.29-5.78,7.25-2.77,0-5.61-2.22-5.52-7.6C421.56,451.45,424.46,449.15,427.25,449.2ZM427,461.1c1.51,0,2.35-1.07,2.41-4.52,0-2.48-.32-4.54-2.25-4.58-1.76,0-2.36,1.68-2.41,4.49S425.26,461.07,427,461.1Z" transform="translate(-237.79 -126.48)"/><path class="cls-1" d="M435.41,449.4l3-.2,4.41,7.83h0l-.53-8.09,3.06-.2.95,14.31-2.83.19-4.62-8.18h0l.56,8.45-3.06.2Z" transform="translate(-237.79 -126.48)"/><path class="cls-1" d="M457.9,446.83l3.32-.64,6.43,13.45-3.09.6-1.23-2.8-3.17.61-.11,3.06-3.09.6Zm4.51,8.41-2.08-4.9h0l-.12,5.33Z" transform="translate(-237.79 -126.48)"/><path class="cls-1" d="M466.77,445.11l2.91-.81,5.92,6.76h0l-2.18-7.81,3-.82,3.85,13.81-2.73.76-6.2-7.06h0l2.27,8.15-3,.82Z" transform="translate(-237.79 -126.48)"/><path class="cls-1" d="M482.38,443l-3.08,1.12-.85-2.33,9.21-3.37.85,2.33-3.08,1.13L489.51,453l-3.06,1.12Z" transform="translate(-237.79 -126.48)"/><path class="cls-1" d="M490.94,436.86l3.09-1.37,9.28,11.67-2.88,1.28L498.61,446l-3,1.31.57,3-2.88,1.28Zm6.28,7.19-3.12-4.31,0,0,1.07,5.22Z" transform="translate(-237.79 -126.48)"/><path class="cls-1" d="M499.17,433.18,503.3,431c2.59-1.39,4.86-.73,6,1.35a3.35,3.35,0,0,1-.54,4.1c1.47,0,3.43,2.61,5.95,4.72l-3,1.6-2-2c-2.27-2.31-2.57-2.43-3.77-1.79l2.86,5.33L506,445.82Zm6.53,3.1a1.58,1.58,0,0,0,.74-2.35c-.54-1-1.3-1.14-2.36-.57l-.87.47,1.58,2.94Z" transform="translate(-237.79 -126.48)"/><path class="cls-1" d="M524.11,434.13a5,5,0,0,1-2.24,2.7c-2.88,1.84-6.42.76-8.79-2.95s-2.11-7.55.86-9.45a7,7,0,0,1,3.15-1.07l1.48,2.32a4.79,4.79,0,0,0-2.52.62c-1.57,1-2,3-.28,5.64s3.45,3.37,5.15,2.29a4.91,4.91,0,0,0,1.68-2.44Z" transform="translate(-237.79 -126.48)"/><path class="cls-1" d="M522.44,421.81l-2.63,2-1.48-2,7.86-5.87,1.48,2-2.63,2,7.1,9.51-2.61,1.95Z" transform="translate(-237.79 -126.48)"/><path class="cls-1" d="M528,414.34l2.49-2.1,9.23,11-2.49,2.1Z" transform="translate(-237.79 -126.48)"/><path class="cls-1" d="M548.63,413.88a5,5,0,0,1-1.69,3.07c-2.48,2.35-6.16,2-9.19-1.24s-3.5-7-.93-9.44a7,7,0,0,1,2.9-1.65l1.89,2a4.78,4.78,0,0,0-2.36,1.08c-1.36,1.29-1.38,3.31.78,5.59s4,2.66,5.49,1.28a4.9,4.9,0,0,0,1.19-2.72Z" transform="translate(-237.79 -126.48)"/><path class="cls-1" d="M546.54,396.41l3-3.62c1.87-2.27,4.21-2.52,6-1a3.34,3.34,0,0,1,1.06,4c1.36-.54,4.17,1.11,7.29,2.1l-2.15,2.61-2.57-1.1c-3-1.27-3.3-1.27-4.17-.22l4.67,3.84-2.07,2.52Zm7.21.38a1.58,1.58,0,0,0-.21-2.46c-.88-.72-1.64-.56-2.4.37l-.63.76,2.58,2.12Z" transform="translate(-237.79 -126.48)"/><path class="cls-1" d="M554.05,387l4.81-6.84,2,1.43L558,385.81l2.73,1.92,2.73-3.88,2,1.43-2.73,3.88,2.92,2.05,3-4.33,2,1.43-4.92,7Z" transform="translate(-237.79 -126.48)"/><path class="cls-1" d="M569,383.55c1.66-.59,2.42-1.06,2.86-1.8a1.22,1.22,0,0,0-.34-1.75c-1.8-1.09-5.46,1.92-8.44.11a3.84,3.84,0,0,1-1-5.41,6.34,6.34,0,0,1,2.38-2.22l2.3,1.39a5.61,5.61,0,0,0-2.32,1.84c-.4.67-.34,1.34.16,1.64,1.45.88,5.64-2,8.55-.25a4,4,0,0,1,1.27,5.63,6.64,6.64,0,0,1-2.79,2.41Z" transform="translate(-237.79 -126.48)"/><path class="cls-1" d="M565.44,369.3l3.83-7.43,2.2,1.14-2.34,4.53,3,1.53,2.18-4.22,2.2,1.14-2.18,4.22,3.17,1.64,2.43-4.7,2.2,1.14-3.92,7.59Z" transform="translate(-237.79 -126.48)"/><path class="cls-1" d="M571.34,357l1.32-3.11,14.75,2.19-1.23,2.9-3-.55-1.27,3,2.47,1.81-1.23,2.9Zm9.5,1-5.23-1,0,0,4.35,3.08Z" transform="translate(-237.79 -126.48)"/><path class="cls-1" d="M574.86,348.72l1.5-4.44c.94-2.79,3.05-3.85,5.28-3.09a3.35,3.35,0,0,1,2.41,3.37c1.09-1,4.29-.43,7.57-.61l-1.08,3.2-2.8-.13c-3.23-.14-3.54,0-4,1.27l5.73,1.94-1,3.08Zm6.89-2.19a1.59,1.59,0,0,0-1.07-2.23c-1.07-.36-1.73.06-2.11,1.19l-.32.93,3.17,1.07Z" transform="translate(-237.79 -126.48)"/><path class="cls-1" d="M593.73,332.38a5,5,0,0,1,.21,3.5c-.85,3.32-4.17,4.94-8.44,3.85s-6.7-4.07-5.83-7.49a7,7,0,0,1,1.57-2.94l2.67.68a4.79,4.79,0,0,0-1.42,2.17c-.46,1.81.59,3.53,3.65,4.31s4.83.11,5.33-1.85a4.91,4.91,0,0,0-.44-2.93Z" transform="translate(-237.79 -126.48)"/><path class="cls-1" d="M581.29,326.37l.55-3.21,5.77,1,.61-3.54-5.77-1,.55-3.21,14.13,2.43-.55,3.21-5.92-1-.61,3.54,5.92,1-.55,3.21Z" transform="translate(-237.79 -126.48)"/><path class="cls-1" d="M591.27,292.39a3,3,0,1,1-3,3A3,3,0,0,1,591.27,292.39Z" transform="translate(-237.79 -126.48)"/><path class="cls-1" d="M255.71,280.36l-.4-.42C255.51,280.26,255.24,280.51,255.71,280.36Z" transform="translate(-237.79 -126.48)"/><path class="cls-1" d="M244.56,268.41l-.47.15c.41.09-.11.58.63.34Z" transform="translate(-237.79 -126.48)"/><path class="cls-1" d="M243.84,270.27s-.29-.91-.31-1C242.33,269.46,243,270.39,243.84,270.27Z" transform="translate(-237.79 -126.48)"/><path class="cls-1" d="M242.5,267.7c.09-.38.72-.58,1-.87,0-.11-.31-1.34-.55-.91a3.47,3.47,0,0,1-1,.3,1.19,1.19,0,0,0,0,.21.36.36,0,0,0-.17.12c-.28.28.64.12.39.42-.64.77,0,2,0,1.63.25,0-.1.59.32.17S242.41,268.12,242.5,267.7Z" transform="translate(-237.79 -126.48)"/><path class="cls-1" d="M246.21,273.59c.16.25,0,.66.39.42S246.77,273.49,246.21,273.59Z" transform="translate(-237.79 -126.48)"/><path class="cls-1" d="M253.81,278.52c0,.81.56.72-.16,1.14-.37.23-.69-.21-1.11-.19.34.56.68,1.81,1.18,2.07.06,0,.78,0,.79,0,.08-.94.7-1.48-.07-2.7Z" transform="translate(-237.79 -126.48)"/><path class="cls-1" d="M248,257l-.47.15c.29,0-.41,1.67.79.84Z" transform="translate(-237.79 -126.48)"/><path class="cls-1" d="M241.48,262c-.18.14-.58,1.35.24.74C241.76,262.76,242,261.69,241.48,262Z" transform="translate(-237.79 -126.48)"/><path class="cls-1" d="M253.1,276.3a2.58,2.58,0,0,1-.55-.09c.37-.3-.79,0-.79,0l.24.74c.35.35,1.36.8,1.66,1.1C253.57,277.81,253.1,276.3,253.1,276.3Z" transform="translate(-237.79 -126.48)"/><path class="cls-1" d="M252.16,272.52a4.4,4.4,0,0,0-.55-.91c1.19-.6-1.46.21-.4.4A1.28,1.28,0,0,1,252.16,272.52Z" transform="translate(-237.79 -126.48)"/><path class="cls-1" d="M244.7,274.62l.63.34C245,274.49,243.94,273.28,244.7,274.62Z" transform="translate(-237.79 -126.48)"/><path class="cls-1" d="M251.48,257.23l-.55-.91C250,256.95,250.53,257.22,251.48,257.23Z" transform="translate(-237.79 -126.48)"/><path class="cls-1" d="M253,261.92c.13-.22,0-1.61-.16-1.31S252.82,262.22,253,261.92Z" transform="translate(-237.79 -126.48)"/><path class="cls-1" d="M256.86,262.59c.4-.46-.25-1.76-.47-1.48C256.3,261.23,256.56,262.94,256.86,262.59Z" transform="translate(-237.79 -126.48)"/><path class="cls-1" d="M552,274.38c.08.09.82.17.87.27s-.25-1.5-.31-1.8c-.12.13-.56.18-.71.22l.16.5-.24.08C552,273.87,551.84,274.14,552,274.38Z" transform="translate(-237.79 -126.48)"/><path class="cls-1" d="M552.26,276.76a4.41,4.41,0,0,0,.4-.4,3.22,3.22,0,0,1-.24-.74s-.59,0-.79,0C551.73,275.81,552,277.13,552.26,276.76Z" transform="translate(-237.79 -126.48)"/><path class="cls-1" d="M249.18,258.23l.71-.23a15.33,15.33,0,0,0,0-3.27c-.09-.65.29-.28-.63-.34a4.34,4.34,0,0,1,.32,1c-.18.33-.78.18-.87.55-.16.7.13,1.16.08,1.88C249.28,257.89,248.9,257.79,249.18,258.23Z" transform="translate(-237.79 -126.48)"/><path class="cls-1" d="M240.85,260.88c.45-.33-.05-.11.4-.4.13-.07-.63-.34-.63-.34s.36-.34.4-.4-.42-1.87-.79-1.66c-.21.13.07.57,0,.82l-.4.4a11.62,11.62,0,0,0,.71,2.22l.79,0C241.52,261.38,240.86,260.9,240.85,260.88Z" transform="translate(-237.79 -126.48)"/><path class="cls-1" d="M239.69,248.2c-.34,0-.34,0-.79,0a6.49,6.49,0,0,1-.48,1.79c-.16.2-.63.23-.63.47,0,1.31,1.46,2.42,1,1.58a2.79,2.79,0,0,0,.79,0C240.1,251.69,239.76,249.24,239.69,248.2Z" transform="translate(-237.79 -126.48)"/><path class="cls-1" d="M240.65,246.26c.17.13.6.75.79.84.35.16.69-.21,1-.06-.15-.07-.12-.59-.24-.75s-.93-.15-1.11-.19l-.16-.49C240.23,245.48,240.78,246.11,240.65,246.26Z" transform="translate(-237.79 -126.48)"/><path class="cls-1" d="M241.09,264.08s-.39.9.39.42C242,264.21,241.94,263.79,241.09,264.08Z" transform="translate(-237.79 -126.48)"/><path class="cls-1" d="M269.7,293s.46-.65.32-.64c-.35,0-.21,0-.55-.1l-.24.08c-.18.14-.54.49-.63.47a6,6,0,0,0-.55-.91c-.18-.06-.53.22-.71.23-.45,0-1.2-.66-1.58-.86a9.76,9.76,0,0,0,.63,2c.08.1,1.86.57,2.14,1l.16.5a2,2,0,0,0,1.27-.13s1-.85,1-.87c.39-.4.31-.63.32-.65l-.16-.49A4.89,4.89,0,0,1,269.7,293Z" transform="translate(-237.79 -126.48)"/><path class="cls-1" d="M560.78,289.07a.57.57,0,0,0-.62.13c0,.35.22.63,0,.82s-.71.13-1,.3a4.12,4.12,0,0,0-.08.57,13.34,13.34,0,0,0,1.5-.21c0-.48.27-.59.48-1C561.11,289.72,561.08,289.21,560.78,289.07Z" transform="translate(-237.79 -126.48)"/><polygon class="cls-1" points="217.1 143.55 212.8 173.58 221.49 173.58 217.26 143.55 217.1 143.55"/><path class="cls-1" d="M471.37,405.36c-.54.27-.77,1.08.4.42C472,405.64,472,405.07,471.37,405.36Z" transform="translate(-237.79 -126.48)"/><path class="cls-1" d="M258.94,285.59a4.39,4.39,0,0,1-.23-.74,5.28,5.28,0,0,0-1.27.13s.06.77.08,1.06c.31.12.45-.09.79,0,.06,0,1.42,1.18,1.42,1.18.2,0,.52-.3.71-.23-.26-.38-.16-1.14-.47-1.48C259.87,285.42,259.13,285.66,258.94,285.59Z" transform="translate(-237.79 -126.48)"/><path class="cls-1" d="M253.24,274.75l.1-.16A.4.4,0,0,0,253.24,274.75Z" transform="translate(-237.79 -126.48)"/><path class="cls-1" d="M557.08,284.47c-.35-.84-1.63-.88-1.58-.85-.13-.07-.32.33-.4.4.19.21.86.39.95.51s.13.76.32,1,.73-.05.79,0C556.89,284.89,557.36,285.12,557.08,284.47Z" transform="translate(-237.79 -126.48)"/><path class="cls-1" d="M458.25,388l-.39-.42C458.06,387.94,457.83,388.18,458.25,388Z" transform="translate(-237.79 -126.48)"/><path class="cls-1" d="M550.92,310.38c-.13-.27.19-.76-.16-1.31-.16-.26-.62.12-.71-.59,0-.24.55-.29.63-.47s-.21-1-.16-1.31c-.38,0-1.13.15-1.35-.12s-.1-.69-.24-.74c.38-.29.08-.32,0-.81a22.91,22.91,0,0,1,4.21-1.61c-.11-.7-.59-.31-.63-1.16l.88-1.37c.1-.59-.32-1-.24-1.56.2-1.12,1.34-2.24,1.52-3.47.06-.38-.29-.93-.16-1.31s1-.47,1-.87-.36-.84-.39-1.23c0-.63,1-1.88,1.35-2.34a20.1,20.1,0,0,0-1.26-3.13c-.2-.32-1.38-.59-1.58-.86l-.16-.5c-1-.42-1.23.83-2.14-.95-1.07-2.11-.15-3.63.25-5-.21-.21-.1-.76-.31-1l-.23.08c-.37.12-.67-.39-1-.51a17.13,17.13,0,0,0-.47-3.12,7.57,7.57,0,0,1-.95-2.15c0-.08.54-.6.55-.72.11-.45-.21-.78-.15-1.31-.34-.14-1.09.1-1.35-.11s-.31-.71-.55-.91c.5-.54.9-1,1.35-1.52-.78-1.34-.7-.77-.79-2.47-.38-.12-.47,0-1,.06,0-.27.2-1,.16-1.14-.18-.82-.6-.52-.79-.84-.31-.51-.23-1.22-.55-1.73l-.56-.09a38.07,38.07,0,0,1-2.21-3.65c.69-.68,3.42-3.31,3.42-4.08,0-1.09-.89-2.22-1.18-2.88l-.48.15c-.11-.22-.15-1.44-.39-2-.06-.17-1-1.65-1.11-1.82a19.8,19.8,0,0,0-.87-2.72c-.15-.26-1.1-.61-1.34-.93-1.14-1.53-1.74-4.17-3.63-4-1.69.14-1.65,1.33-1.91,2.24-1.38,0-2.58.29-3.72-.17s-1.4-1.54-2.29-2.26c-.17-.14-3.41-2.1-3.56-2.13l-.08-.25c-.52-.12-.71.29-1.27.13,0,0-1.09-1-1.11-1,0,.17-.59.26-.64.48a2.78,2.78,0,0,0,.24.74,17.41,17.41,0,0,0-1.58.78s-1.47.51-1.91.61c-1.17-1.29-1.32-1.92-3.09-2.28.53-3.13,1.21-2.84,3.81-2,.11-.16.35-.65.56-.72a12.2,12.2,0,0,0-1.42-2c-.12-.1-.79-.12-.87-.27-1-1.79.56-2.89.49-4.24,0-.3-.3-.67-.31-1-.2-.1-2.1-.92-2.14-1-.58-.61-.41-1.41-.95-2.15-.24-.33-1.13-.66-1.35-.93-1-1.31-.76-4,1-4.14.11,0,.08.45.63.34.06-.16.14-.83.24-.89-3.24-.86-3.2-2.2-5.3-5.11l-.55-.1c-.28-.35-.16-.84-.39-1.23-.08-.13-.94-.62-1-.76-.85-1.48-.89-3.06-1.89-4.29-.62-.77-1.67-.56-2.77-.48a9.94,9.94,0,0,0-.95-2.15l-.63-.34c-.44-.88,0-1.34-.39-2.05-.15-.28-1.12-.5-1.26-.68l-.16-.49c-.28,0-.66.38-1,.3,0,0-.22-.7-.24-.74,1.36-.09-1-.2-1.11-.19-.09-.63-.32-1.74-.39-2.05,0,.07.38,0,.4.42-.4-.34-.08.57-.08.57a2.66,2.66,0,0,1,.95.51c.32-.19.28-.51.88-.55-.63-1.07-1-1.08-.39-2.05a7.35,7.35,0,0,0-1.11-.19c0,.21-.42-1.43-.47-1.48s-.79.32-1,.31c-.37,0-.26-.65-.55-.92s-1.17,0-1.43-.36l-.16-.49c.41-1.4,1.08-1.85,2.54-2.72a14.55,14.55,0,0,1,.47,1.48,6.55,6.55,0,0,0,.45.7c-.25.41.34.13.34.13.1-.19.29-1.09.4-1.21a5.5,5.5,0,0,0-.39-1.24c-.15.12-.38-.07-.55-.1,0-3.22,0-3.83-2.21-6.1a16.13,16.13,0,0,0-1.26-1.5l-.47.15c-.25,0-.27-.49-.47-.66l-2.69-1c-.73-.06-1.48.62-2.22.43-.09,0-1.16-1.77-2.29-1.44-.34.1-.49.84-.72,1a3.27,3.27,0,0,1-.95.3c0,.29-.32.52-.32.65,0,.31.56,1.14.55.91l.16.5c-.21.19-.71.15-1,.3-.69.46-.45,1.53-.56,2.36l-.48.15a9.35,9.35,0,0,0-.31-1c-.2,0-.54.31-.72.23a3.09,3.09,0,0,1-.71.23c0-.24-.08-1.06-.08-1.06l.48-.15c-.16-1.87-.33-1.35.17-2.78-.28-.07-.66.35-1,.3s-.71-1-1.11-1l-.48.15c.26,1.16.38,2.59,1.34,2.56.66,0-.32.65-.32.65a3.63,3.63,0,0,0-2.69-.23l-.32-.17a.61.61,0,0,0-.71.23c0,.06-.32.33-.4.4s.29.67.24.74l-.47.15c-.44-2.25,0-3.29-1.49-5.51-.18.24-.49,0-.71.23a7.19,7.19,0,0,0-.72,1.86c-.28-.13-.51-.74-.79-.84s-.84.18-1,.06c-.43-.31-.42-1.21-.95-1.33-.21,0-5.5.35-5.63.43a9,9,0,0,1-.16,1.14,10,10,0,0,1-2.62,1.65l-.16-.49c-.58,0-1-.11-1.35-.12s-.77.34-1.19.38c-.79.08-1.53-.9-2.7-.23-.36.22-.68,1.57-1,1.93-.11.16-.78.66-.79.8,0,.3.38.7.32,1a4.23,4.23,0,0,0-1,.06l-.16-.49a6.91,6.91,0,0,0-2.14,1.5c-.12.33.12.93-.16,1.14l-.48.15c0-.93-.2-1.44-.23-2.38l.48-.15c0-.49-.29-.1-.55-.1a7,7,0,0,0,0-1.63,16.53,16.53,0,0,1-2.3,1c.06-.31-.25-.42-.24-.74s.39-.28.63-.47l-.16-.49c-.13-.11-.62.14-.79,0a9.58,9.58,0,0,1-1.58-2.49l.64-.48c.12-.51-.25-.82-.15-1.31a6.33,6.33,0,0,0-1,.06c-.29-.48-.17-.72-.55-.92l.4-.4c.13-.51-.21-.74-.16-1.31l.48-.15c0-.46-.17-1-.15-1.31-2.11,0-2.71.59-3.81,2,.25.44.18,1.08.47,1.48.07.1.5.1.63.34a21.93,21.93,0,0,1-3.88,1l-.32-.17c-.67-.36-1.21-2.25-2.85-2.36-2.29-.14-5.59,2.44-8.56,2.73-.64.07-2-.48-2.77-.48-1.38,0-2.42.52-3.81.4-.81-.06-1.92-.89-2.69-1-1.25-.25-2.31.16-3.49-.25L415,179a7.73,7.73,0,0,0-2.06-.71c-.79-.06-1.1.32-2,.36-.64,0-2-.33-2.69-.23-1.4.22-2.41.86-3.65.89-1.8,0-3.68-.92-5.31-1-2.11-.13-3.27,1-5.39,1.17-.66.08-2.21-.27-2.93-.15-1.69.29-3.29,1.29-5,1.59-.88.16-2.23-.14-3.49.57l-.56.72c-1.53.76-3.48.81-5,1.59-.72.38-1.12,1.52-2.38,1.58-.29,0-1-.88-1.34-.93-.6-.11-1.17.34-1.75.28l-.39-.42c-.46-.13-.69.1-1.27.13-.14-.25-.56-.25-.63-.34-.53-.74-1.23-2.81-1.65-3.55-.55.18-.83-.19-1.51.21-.38.23-.06.93-.72,1-.11,0-.4-.35-.87-.27.44.81,2.14,5.3,1.25,6.4-.39.5-1.29.66-1.74,1.1-.14.15-.45,1.19-.64,1.29-1.07.61-1.59-.17-2.14-.14s-1.1.65-1.35.7a7.61,7.61,0,0,1-.24,1.71c-.38.59-1.11.6-1.75,1.1-1.73,1.39-2.81,2.64-3.18,4.82-.3-.06-.23-.39-.4-.42-.9-.15-1.31.19-2.3.19-.07.66-.17,3-.48,3.42s-.88.17-1.19.38c-.11.08-.52.85-.72,1,1,2.69.19,1.66.07,3.51,0,.72.35,1.16.31,1.81l-.4.4c0,.37.62.74.47,1.48s-1.16.92-1.59,1.59l.16.49s-1.43,3.72-1.44,3.72c-.94.95-2.91.85-3.25,2.12-.51,1.91,1.26,3.51,1.49,5.51.07.59-.67,1.4-.72,1.86-.06.75.44,1.22.39,2.05,0,.45-.87,1.37-.87,1.37-.1.64.4,1.26.39,2.05,0,.47-.59,1.06-.56,1.54.13,1.64,1.55,3.39,1.26,4.77,0,.11-1.4,1.39-1.59,1.59a11.06,11.06,0,0,1,1.41,6.08,23.77,23.77,0,0,0-.24,2.52c.26,1.64,1.23,3.07,1.49,4.69L346,253a8.86,8.86,0,0,0,1.26,4l.63.34s0,1.2-.32.64l.16.5c1.06-.28.28,1.1.63,1.16l.16.49c-.51,0-.46-.33-.63-.34-.48,0-.94.44-1.43.46-.87,3.51-1.92,3.88-4.53,6.34.54.76.54,1,1.11,1.82-.15.23-.37.28-.32.65a26.09,26.09,0,0,0-2.78,1.16c-.9.58-1.69,2.07-2.54,2.71-1,.78-1.73.76-2.93,1.48-.87.52-2,1.88-2.94,2.29-1.91.84-4.11,1-6.5,1.8a21.67,21.67,0,0,0-5.08,3c-.2.17-.67,1-1,1.12-.61.35-1.55.3-2.14.68-.32.21-.4,1.11-.64,1.29s-.6.12-.71.23c-2.79-4.21-.83-1.48-4.59-2.07-1.08-.16-2.26-2.3-3.24-2.77-.83-.39-1.71-.05-2.69-.23-.25,0-.45-.52-.71-.59-.75-.2-1.17,0-1.9-.21-.34-.1-.92-.65-1.27-.68s-.75.36-1.19.38-1.17-.58-1.74-.53-1.09.51-1.67.53c-1.08,0-3-.92-4.12-.59-.41.12,0,.53-.64.48s-1.08-.74-1.58-.85-.82.28-1.51.21c-1-.09-2-1.16-3.25-1.14-1,0-1.44.47-2.46.51s-2.52-.29-3.49-.25c-2.71.11-4.61.42-6.89-.25a6.4,6.4,0,0,1-2.93-1.79c-.71-1.23-.2-3.63-2.13-4.22-.19-.06-.53.22-.71.23-1.23.08-3.11-.73-4.2-.84-.81-.08-1.56.39-2.3.19-.21-.06-.49-.55-.71-.59l-.24.07c-.49-.47-.34-1-.79-1.65-.26-.37-1.15-.82-1.42-1.18s-.15-.84-.39-1.24-1.36-.71-1.66-1.1,0-.51-.24-.74c.26-.42-.1-.3,0-.82,0-.11.9-1,1-1.12l-.32-.17a3,3,0,0,1-.79-.84c-.14.18-.55.1-.71.23-1.26,1,.7,1.45-2.14,1.5a16.25,16.25,0,0,0-1.58-2.49c1.89.32,1.09.68,1.43-1.27-.49,0-.93.43-1.43.46-.05,0-1.58-.4-2-.46a33,33,0,0,0-.33,5.55,4.89,4.89,0,0,1,1-.06,4.53,4.53,0,0,0,.31,1c-.39.41-.38.3-.87.55.38.39.46.51.79.83,0-.51.39.42.39.42s-.94-.11-.24.89a7.35,7.35,0,0,1,.79,0c.23.21.05.5.24.74s.48,0,.79,0c0,.88,0,1.18.08,1.88a5.37,5.37,0,0,0,.63-.47l.16.49s1.4.56,1.5.61c-.06.31.25.43.23.74s-.38.28-.63.47c.13.26.49,1.58.48.67.24.1.42.25.63.34-.06.29-.73,1.7-.64,1.29,0,0-.46.16-.42,0-.1.17-.2.41,0,.41.47,0,.15,0,.39.42.75-.24,2.22-.57.55.1a3.62,3.62,0,0,1,.24.74,3.37,3.37,0,0,0,.79,0s0,1.58.23,1.56.87-.7,1.27-.95c-.09.12.34.62.24.74s-.75.24-1,.3a18.39,18.39,0,0,1,.55,2.55c1-.19,1.66-.38,2.46-.51l-.55-.91c.23-.15.77-.09,1-.3-.07.15.34,1.07.39,1.23a8,8,0,0,1-.87.55,6.47,6.47,0,0,0,2.85,1.54c-.41.31-.47,0-.79,0,0,.65-.15,1.14-.16,2l.16.49a3.74,3.74,0,0,1,1-.05l.08.24a5.42,5.42,0,0,1,.87,1.08,3.64,3.64,0,0,1,.71-.23c.37.14-.14.78.47.67.2,0,1-1,1.19-1.2l.63,2c-.29.23-.56.17-.63.48l.16.49a5.89,5.89,0,0,0,2.93-.67s-.13,1-.16,1.14c-.21,0-1.46.24-1.27.13-1.59.41.47,1-.16,1.14.05.16.25,1.17.39,1.24.5.2,1-.55,1.11-.63a2.6,2.6,0,0,0,.63.34s.19.29.08-.57a2.45,2.45,0,0,0,.71-.22,14.71,14.71,0,0,1-.87-1.9l.48-.15a7.85,7.85,0,0,1,.31,1c.34-.22.46-.55.87-.55,0,.23-.25.81-.24.89.06.33.45.32.55.91,0-.23.39-1.07.4-1.22-.45-.08,0-.63.32-.64a.92.92,0,0,0,.63.34,7.26,7.26,0,0,0,.39,1.23l.48.67c1.24-.05,1-.94,1.43-1.27.13-.1.61-.11.71-.22,0,.29-.21.69-.24.89l.16.49c.27-.16.3-.61.87-.55,0,0,.22.71.23.75a5.5,5.5,0,0,1,1.43-.46,3.51,3.51,0,0,1,.16,1.31c.47.24,1.51.4,1.82.78a21.17,21.17,0,0,1,1.73,3.8c0,.37-.94.69-1,1.12l.16.49c-.2-.07-.51.24-.71.23s-.28-.4-.47-.66a10.33,10.33,0,0,0-2.54,1.08,20.19,20.19,0,0,0,1,2.39c1,1.54,1.25-.2,2.61,0l.48.66c.55-.4.16.49.16.49-.23.19-.72.12-1,.3,0,0,.25.74.24.74.39-.12.36.23.63.34a3.87,3.87,0,0,1,1-.87c.35,1.1,1.28,2.83,1.26,3.95,0,.27-.7.54-.8.8a6.73,6.73,0,0,0,.15,2.94c.9-.34.88-.25,1.67-.53.05-.34,0-.68.24-.89-.16-.23-.46-.53-.47-.66s.34-.4.32-.64a30.6,30.6,0,0,1,3.41-.82c.14.21-.26.54-.08.57.34.06,1,1.08,1.18,1.25a1.4,1.4,0,0,0,.56.1c-.2.25.74-.44.87-.55-.43-.7-1.49-1.69-1.66-2.74a10.21,10.21,0,0,0,.48-1c0-.5-.35-.94-.16-1.31,0-.05.63-.45.63-.47.35.49.57,1,1,1.58a5.57,5.57,0,0,0,.55.1c.3.7-.13,1.06-.08,1.39.19,1.22.93,1.5,1.42,2,.25.26.47.82.79.84,1,.06,3.94-1.82,4.29-2.19.2-.19,0-1,.16-1.13l.47-.15c0-.2-.15-2.05-.15-2.13a13.11,13.11,0,0,0,1.59-.78c.32.37.27.79.63,1.16s1,.19,1.42.36a7.54,7.54,0,0,1,1.42,1.18c.95-.64,1.2-.59,2-1.18,0,.47.41.77.39,1.24,0,.06-.33.33-.4.4a17.17,17.17,0,0,0,.87,1.9c-.45,0-.73.38-1.19.38s-.86-.7-1.27-.69c-1.87.09-2.37,1.66-2.86,2.54-.19.36-.83,1-.87,1.37-.09.86.41,1.32.47,2.29a6.24,6.24,0,0,0,0,.82l-.48.15c0,.65.57.25.55.91l-.63.47a13,13,0,0,1,.55,1.73c.75-.72,1.19-.7,1.9-1.42l.16.49c-.5.31.15.59.08,1.07,0,.27-.72.51-.79.79-.12.52.2.82.15,1.31-.09,1.45-.63,3.43-.49,5.05.21,2.16,1,3.53,1.33,5.83.21,1.47-.68,2.66.15,4.58l.63.34c.53.82.42,1.56.94,2.15s2.32.63,2.77,1.29c.76,1.1.44,2.26.78,3.28,1.16,3.45,3.47,4.15,4.1,7.94l-.87.55c-.46-.55-.43-.74-.87-1.08-.11.15-.77.25-1,.3-.06.46-.56,2.3-.56,2.36,0,.61.59.89.63,1.16,1.31.36.84,0,1,1.58.6-.13.22-.77.79,0a.76.76,0,0,1,0,.81c.31.12,1.12.2,1.43.36s.14.52.47.67c0,.49-.41.65-.08,1.39.9,1.95,3.4,2.51,4.83,3.63.21-.59.54-1.19.72-1.86.27,0,.53.34.63.34.83,0,1.41-.6,2.06-.93l.16-.32a5.59,5.59,0,0,0-.71-1.41c.22-.28.09-.69.24-.89.5-.65,1.23-.68,1.66-1.35.19-.28-.09-.46,0-.81l.48-.15c.06-.06.08-1,.16-1.14.51-.81,2.15-1.26,2.93-1.48,0,0-.31-1-.31-1,.42-.52.75-.05,1.35-.7.23-.23.34-1.3.56-1.54.48-.49.89-.16,1.19-.38a4.69,4.69,0,0,0,.87,1.08c-.26.32-.38.25-.87.55a12.59,12.59,0,0,0,.31,3.44l.63.34a6.91,6.91,0,0,1,.47,1.48c1.88.17,2.09.36,2.13,2.59,1.34-1.26,3.21-2.34,1.43.36a13.23,13.23,0,0,1-3.65,3.34c.24.63.45,1.62.63,2,.08.16.48.12.71.59.43-.17.49-.69.56-.72.3-.12.51.36.63.34s.32-.64.87-.55c.07,0,.21.66.24.74.35,0,.76-.16,1.27-.13.16,0,.25.4.4.42-.2.23-.33.85-.48,1s-.6.07-.71.23c-.63,1,0,1.42-.32,2.28l-1.27,1c-.12.18.11.66,0,.81a10,10,0,0,1,4.2,2.47c.68.79.59,1.54,1.26,2.32.26.29,1.12.54,1.35.93.54.91.4,2.07.94,3,.14.22.78.36.95.51-.08.06,1.29,1.94.72-1.86l.79,0c.17.27,1,1.28.95,1.33a2.15,2.15,0,0,0,.16,2.13c.17.29,1.13.51,1.26.69s.12.77.31,1c-.73-.14-.66-.41-.95-.52-.7.83-1.81.82-.72,2.68l.55.1c.47.4.68.67,1.11,1,1.45-.82,4.41-2.62,6-2.47.79.08,4.32,2.48,5.38,2.91.55.22,1.13,0,1.66.29.27.12.86,1,1.11,1,.58.05,1.34-.49,1.9-.61s2.18.25,2.62,0c0,0,.16-1.11.16-1.14s.64-.11.71-.23c0,0,.41.65.55.91a9.8,9.8,0,0,0-.64,1.29c.25-.12,1-.94,1.27-.95.09,0,.16.66.23.74s.86-.13,1-.05.38.85.55.91c1.4.49,3.15-.47,4.68-.13.74.16,1.3,1.25,2.21,1.2,2.56-.13,6.08-1.71,8.17-2.33a4.48,4.48,0,0,0,1.74-.29c.19-.12.52-.84.71-1-.54-1.15-.63-1.72-1.18-2.89.21.05.76-.24,1-.3.84,1.19.91,1.59,2.37,1.69l.39.42c1.11-.15,2.27-1.21,2.94-1.48a7,7,0,0,0-.47-1.48,6.17,6.17,0,0,1,2.46-1.33c.92-.09,2.15,1.09,3,1.22.44.06.76-.37,1.19-.38.07,0,.31.42.4.42.64.05.7-.23,1.27-.13.22,0,.69.51,1,.51,2.71.06,2.27-1.39,2.07-3.38,1.85,0,4.13.17,5.63-1.25.59-.54.78-2.11,1.2-2.83s1-.87,1.35-1.52a11,11,0,0,0,.4-2,32.46,32.46,0,0,0,4.75.94c1.22,0,2-.58,3.25-.49l.39.42a28.75,28.75,0,0,0,2.93-.66c.48,0,1.43.46,2,.46,3.54,0,6.31-.39,9.83-.41,2,0,4.31.68,6.26.72,1.51,0,2.24-.43,3.8-.4.22,0,.8.52.95.52.58,0,1.1-.47,1.67-.53l.87.27c.65-.14.9-.67,1.51-1l-.16-.5-.63-.34a3,3,0,0,0-.07-1.06c-.22-.49-1.24-1.25-1.58-1.67,0,0,0-1.21.32-.65a2.62,2.62,0,0,1,1.43-.45c.47.05,1.2,1.07,1.66,1.1.16,0,.63-.29,1-.3,1.34,2.18,1.5,2.51,3.56,2.13-.55.9-.09.51-.32,1.46l.24-.08.24-.07c.85,1.83.16,1.38,2.06,2.34-1.09.69.72,1.63,1.11,1.82s-.16.32-.16.32c-.61.95.21.71.31,1.8l-.32.65a7.31,7.31,0,0,0,.71,1.41,6.76,6.76,0,0,1,.79.83c-.54.84-.17.94-.08,2.2a5.53,5.53,0,0,0-2.15,1.5,3.25,3.25,0,0,0,.24.74c.22.21.39.42.39.42-.63.2,1.3,3.32,1.34,4.2l-.32.65.16.49c.53,0,.8,1.28,1.11,1.83-.52.79-1.2,1.35-1.67,2.16-.11.2.21.65,0,.82s-.66.1-.71.23.31.74.31,1c0,.42-.63,1-.63,1.29s.41.77.39,1.23c.27-.05.28,0,.46.07-.11-.11.18-.54.18-.54s.45.4.39.42c.89-.59.56.87.24.75.16.31.63.48.63,1.15,0,.11-.54.61-.56.72a7.1,7.1,0,0,0,1.1,4.28c.47.51,1.38.27,2,.46a4.87,4.87,0,0,1-.79-.84c0-.1-.4-.76-.47-.66s0-1.63.08-.57c.44,0,1,.05,1.27-.13s-.44-.71.32-.65a7.57,7.57,0,0,1,.31,1,19.83,19.83,0,0,1,3.88.67c.21-.25,0-.43,0-.82.15,0,.61-.1.71-.23a6,6,0,0,0,.47,1.48c-.48-.18-.08.57-.08.57s.63,1.16.63,1.16a3.51,3.51,0,0,1,.55.09c.24.17,1.5,1.4,1.11.19l-.16-.49c.15-.12.75.22.87.27.11-.11.31-.61-.16-.49a5.5,5.5,0,0,1-.24-.74s.85-.39.55.09a3.79,3.79,0,0,1,1.19-.38c-.71-.11.24-.89.24-.89.24.38.22.88.55.91s.68-.37,1-.3a7,7,0,0,1,.64-1.29l-.87-.27c-.79-.06,1-.56,1.11-.62a10.45,10.45,0,0,0,1.51-.21c-.23-.23-.29-.87-.71-.59.59-.59-1.34-1.27-.31-1.8,1.48-.75,2.22,1,2.93,1.79.14-.24.78-.08,1-.3a5.61,5.61,0,0,0-.39-1.23,10.72,10.72,0,0,0,2.38.06c.34-.09.11-.58.63-.48,0,0,1.79,1.83,1.9,1.84l.24-.07c.17.26.13.75.32,1,1.3-.22,3.17-.25,3.73-.64a.76.76,0,0,1,.32-.64c.22.35.22.92.55.91s.85-.54.87-.55c.25-.09.68-.22,1-.3-.49-.08-.32-.17-.32-.17.19-.17,0-.63.48-1,.28-.19.92,0,.79,0,1.12-.4,2.16-1.07,3.41-.82l.71.59c.85,0,.55-1,.48-1,0,.54-.39-.41-.39-.41l.55-.73.4.42c2.78.2.94.27,1.9,1.84,0,.06.51.14.63.34,1-.16,1.24-.27,2.22-.43-.24-.45-.62-.42-.71-.59-.31-.6.34-1.18-.63-1.16-.11,0-.71.27-1,.3l-.55-.91c0-.16.62-.23.64-.48a3.86,3.86,0,0,0-.31-1c2-1.43,2.7-.78,2.86-3.36,2.45-.08.88-.93,2.22,1.2.19-.23.49,0,.71-.23.72-.59.66-2.06.88-3,.77.27.71.59.71.59.35.13.74-.16,1-.06.22-1,.81-3,2.07-3.38.08,0,1.26.37,1.42.36.83,0,1.35-.5,2-.36.44.1.79,1,1.19,1.25.89.57,1.87-.13,2.93.15.18,0,.58.61.71.59a13.46,13.46,0,0,0,2.54-1.08,1.91,1.91,0,0,0,.48-2.6c.94-1.2,1.42-.06,2.14.13.45.12.76-.2,1.26-.13-.13-.29.18-.51-.07-1.06,0-.09-.67-.67-.79-.84.43-.22.06-.37,0-.81,1.34.19,2.25.32,3.56.49a12.67,12.67,0,0,0,0-1.63,3.89,3.89,0,0,0,.71-.22c.1-.41-.47-1.12-.4-1.24.26-.35.45.16.4-.4l.24-.08-.16-.49c.16-.19.75-.16,1-.3s.38-.89.47-1c.48-.32,1.22-.16,1.67-.53s.58-1.6,1-1.93c.65-.55,1.5-.46,2.06-.93s.74-1.73,1.19-2,.11.55.56.1c.11-.11,0-.78.24-.89,1.11-.49,1.38.23,1.9.21s1.28-.62,1.9-.61l1.5.61a11,11,0,0,1,.72-1c-.15-.7-.26-1.22-.39-2.05-1.62.07-2.43,0-3.48-1.07l-.16-.49c1.39-.5,2.34-.64,2.22-2.07,0-.2-.27-.53-.23-.74s.63-.35.64-.47c0-.29-.4-.71-.31-1,.23-.66.88-.73,1.19-1.19.11-.15-.11-.64,0-.82.42-.61,1.16-.79,1.67-1.35.16-.16.09-.72.24-.89a11.34,11.34,0,0,1,1.27-.95c-.15-.14-.25-.78-.31-1a14.88,14.88,0,0,0-2-.46c-.19,0-.51.28-.71.23s-1.67-1.26-2-1.28l-.48.15c-.33-.3-.38-.89-.63-1.15,1.06-1.26.93-1.11.72-2.68.57-.18.58-.56,1.35-.7s2.21.5,3.09-.16l-.55-.91c.4-.25,1.11-1.13,1.75-1.1.18,0,.07.43.63.34.15-.76.67-1.79.17-2.77l-.71-.59c-.05-.11-.16-1.1,0-.82a5.39,5.39,0,0,1-.24-.74,6.31,6.31,0,0,1,1.9-.61c-.86-1.3-1.21-2,.09-3,1.65-1.24,3.19-1,4.92-1.84.42-.19.88-.93,1.19-1.19-.23-.31-.15-.92-.4-1.23-.91-1.24-3.59.09-5.23,0-.11,0-.36-.36-.63-.34.05-.46-.44-.77-.39-1.23,0-.23,1-.88.72-1.86-.11-.48-.49-.36-.47-.67,0-.53,1.14-1.71,1.12-2.26s-.63-.8-.87-1.08c.06-.09.8-.76.79-.8,0-.21-.48-.4-.55-.91a12.33,12.33,0,0,1,.48-1.78,12.69,12.69,0,0,1,2.22-.44l.08-.57c.54-.33.44.28.79,0s.26-.8.48-1c-.33-.06-.93-1.61-.55-1.73-.35-.56-1.27-1.42-1.66-1.92.63-.05.37-.67,1.11-.62l.16.49a11.68,11.68,0,0,0,2,.46c1.18-.27,1.23-1.6,2-2,1-.51,2.4-.28,3-.42-1.54-3.3-1.77-5.48-4-7.7A9,9,0,0,1,550.92,310.38ZM372.13,331.79c-4.23,0-8.21-1.94-13.32-6.54v-17.8c5.18,6.42,8.21,8.72,11.48,8.72,3,0,5-2.91,5-6.9,0-12.11-17-21.19-17-41.29,0-11.87,6.78-21.07,15.63-21.07,3.91,0,7.66,1.57,11.88,5.09v15.5c-5.42-4.6-7.82-5.93-10.53-5.93-3,0-5,2.3-5,5.69,0,9.81,17.62,21.8,17.62,41.41C387.92,321.86,381.14,331.79,372.13,331.79Zm56.62-6.18c-3.67,4.36-7.5,6.18-12.68,6.18-13,0-22.09-16.23-22.09-41.66,0-26.16,8.69-43.23,22.09-43.23a19.8,19.8,0,0,1,12.28,4.6v15.86c-4-3.51-6.62-4.84-9.33-4.84-7.1,0-12.44,8.36-12.44,26.52,0,17.56,4.15,27.12,11.8,27.12,3.19,0,6.86-2.66,10.37-6.66Zm34.92,5.09-2.55-17.2H448.83l-2.63,17.2h-12l14.27-83.19h12.84l14.27,83.19Zm42.42,0-3-15.5c-3.43-17.92-4.23-19.37-9.41-19.37V330.7H481.37V248h17.78c11.16,0,17.54,9.57,17.54,23.13,0,9.32-2.71,15.26-9.17,19.37,4.86,4.12,6.78,22.64,11.4,40.2Z" transform="translate(-237.79 -126.48)"/><path class="cls-1" d="M497.47,262.28h-3.75v19.25h3.91c4.15,0,6.7-3.39,6.7-9.93S502,262.28,497.47,262.28Z" transform="translate(-237.79 -126.48)"/><path class="cls-1" d="M450.2,376.73l-.4-.41C450,376.63,449.77,376.87,450.2,376.73Z" transform="translate(-237.79 -126.48)"/><path class="cls-1" d="M271.14,291c.4.09-.11.58.63.34l-.16-.5Z" transform="translate(-237.79 -126.48)"/><path class="cls-1" d="M322.09,359.6c0,.48-.16,1.82.39,1.24C322.76,360.55,323.44,358.91,322.09,359.6Z" transform="translate(-237.79 -126.48)"/><path class="cls-1" d="M262,287.05l-.16-.49-.48.15a5.82,5.82,0,0,1,.16,1.31c.41,0,.5-.11.79,0,0,0-.61.87-.24.89.56,0,.4-.51.56-.72.22.34-.1.54.4.42C262.87,288.32,262.76,287.34,262,287.05Z" transform="translate(-237.79 -126.48)"/><path class="cls-1" d="M265.83,289.92c-.49,0-.23.24-.55-.1-1.54,1.1-.31.73.79.84C266.06,290.67,265.84,290,265.83,289.92Z" transform="translate(-237.79 -126.48)"/><path class="cls-1" d="M454.84,391.3c.46.66.54,1.29,1.11,1.82.21.2.94,0,1.11.19a12.07,12.07,0,0,1-.95-2.14C455.49,391.47,455.24,391.26,454.84,391.3Z" transform="translate(-237.79 -126.48)"/><path class="cls-1" d="M457.54,387.45c.31-.18-.4-.42-.4-.42S456.75,387.94,457.54,387.45Z" transform="translate(-237.79 -126.48)"/></svg>